<?xml version="1.0" encoding="UTF-8"?>
<svg version="1.1" xmlns="http://www.w3.org/2000/svg" width="1523" height="1588">
<path d="M0 0 C3.89488447 3.04538292 6.15984679 5.79005807 6.9609375 10.796875 C7.13746858 21.21220888 -0.11568848 29.11978928 -6.75390625 36.53125 C-8.68037793 38.44125611 -10.64116663 40.19691894 -12.69726562 41.9621582 C-16.89559926 45.62362773 -20.8611073 49.47402231 -24.79296875 53.41796875 C-25.49751694 54.12156021 -26.20206512 54.82515167 -26.92796326 55.55006409 C-28.40559617 57.02702148 -29.88198707 58.50522242 -31.35717773 59.98461914 C-33.59572731 62.22852585 -35.83956723 64.46704204 -38.08398438 66.70507812 C-39.52896654 68.15072118 -40.97363842 69.59667445 -42.41796875 71.04296875 C-43.07857803 71.7015538 -43.73918732 72.36013885 -44.41981506 73.03868103 C-48.27761471 76.91565101 -51.94569159 80.90583069 -55.52067566 85.04490662 C-57.19431327 86.97600883 -58.92060434 88.84540779 -60.6875 90.69140625 C-61.599552 91.65071045 -61.599552 91.65071045 -62.5300293 92.62939453 C-63.15176025 93.28278809 -63.77349121 93.93618164 -64.4140625 94.609375 C-69.4342443 99.92500614 -74.25005629 105.31346476 -78.80859375 111.03515625 C-81.4385732 114.29154061 -84.17219839 117.44728853 -86.9140625 120.609375 C-91.36935492 125.76828277 -95.6518455 131.03158146 -99.83032227 136.41650391 C-102.73974174 140.16154716 -105.70894433 143.84803685 -108.72485352 147.5078125 C-116.53889722 157.0024092 -123.82675748 166.84071397 -131.0390625 176.796875 C-132.15621275 178.33336042 -133.27339968 179.86981917 -134.390625 181.40625 C-137.62233687 185.85867085 -140.83484604 190.32463685 -144.0390625 194.796875 C-144.53615723 195.48958496 -145.03325195 196.18229492 -145.54541016 196.89599609 C-178.41345168 242.78129821 -208.16642907 291.28846139 -235.58203125 340.60546875 C-237.76585135 344.53050031 -239.97306967 348.43981994 -242.21484375 352.33203125 C-250.67401108 367.04563201 -258.44825027 382.07017693 -266.16162109 397.182724 C-268.75989831 402.26777528 -271.41448955 407.32067795 -274.1015625 412.359375 C-279.408184 422.33582342 -284.40402156 432.47130178 -289.42016602 442.59594727 C-292.80615114 449.41816386 -296.23306718 456.19590476 -300.0390625 462.796875 C-298.07833832 464.75759918 -294.36015002 464.20166699 -291.67138672 464.35351562 C-290.89863907 464.40082321 -290.12589142 464.4481308 -289.32972717 464.49687195 C-286.75132032 464.65351717 -284.17256673 464.80339056 -281.59375 464.953125 C-279.78937697 465.06104711 -277.98502543 465.16932906 -276.18069458 465.2779541 C-272.37583549 465.50604286 -268.57080943 465.73101912 -264.765625 465.95361328 C-259.95659138 466.23498918 -255.14791129 466.52191526 -250.33932877 466.81088638 C-223.40867896 468.42825269 -196.52792984 470.02852789 -169.5390625 470.046875 C-168.48923187 470.04788208 -167.43940125 470.04888916 -166.35775757 470.04992676 C-145.80500735 470.03676222 -125.47411834 468.95720265 -105.0390625 466.796875 C-104.36500366 466.72662109 -103.69094482 466.65636719 -102.99645996 466.58398438 C-14.79206247 457.30102326 70.54281277 423.4228706 137.99609375 365.328125 C140.71330632 363.00829134 143.47902431 360.77244034 146.2734375 358.546875 C162.24225655 345.50683499 176.9093103 330.83539318 189.00488281 314.12524414 C195.51851399 305.12974196 195.51851399 305.12974196 200.2109375 304.046875 C201.1184375 303.964375 202.0259375 303.881875 202.9609375 303.796875 C205.55310363 306.38904113 205.95901806 307.77473121 206.28125 311.4921875 C206.18148299 315.98577509 204.61772796 319.36497283 202.3359375 323.171875 C201.94059814 323.85032471 201.54525879 324.52877441 201.13793945 325.2277832 C192.84094706 339.01005307 182.16577219 351.31352013 170.9609375 362.796875 C170.30158203 363.47669434 169.64222656 364.15651367 168.96289062 364.85693359 C161.5530685 372.47108308 154.17443848 380.0332934 145.7890625 386.5859375 C143.65490766 388.25435136 141.57602396 389.94849704 139.5078125 391.6953125 C128.54810203 400.89976791 116.92879032 408.96183626 104.9609375 416.796875 C104.1143457 417.35375 103.26775391 417.910625 102.39550781 418.484375 C82.70350996 431.33941009 61.49002366 442.34448841 39.9609375 451.796875 C39.31801758 452.0851416 38.67509766 452.3734082 38.01269531 452.67041016 C0.36296127 469.4931972 -39.36920243 480.42298986 -80.0390625 486.796875 C-81.0280957 486.95736328 -82.01712891 487.11785156 -83.03613281 487.28320312 C-89.68437578 488.34406766 -96.33998366 489.13401477 -103.0390625 489.796875 C-103.69491333 489.86261719 -104.35076416 489.92835938 -105.02648926 489.99609375 C-163.86266919 495.8314217 -222.79261216 492.04199563 -281.64477539 488.36035156 C-291.45285997 487.76862361 -301.21645325 487.56362043 -311.0390625 487.796875 C-351.79167421 569.80976409 -385.47361935 656.5087543 -468.0390625 1000.796875 C-468.09545898 1001.62429199 -468.15185547 1002.45170898 -468.20996094 1003.30419922 C-472.37012851 1066.82675786 -466.48297589 1135.65284114 -430.0390625 1189.796875 C-429.63042969 1190.40901855 -429.22179687 1191.02116211 -428.80078125 1191.65185547 C-420.22911725 1204.39030058 -409.1036318 1219.76459035 -395.0390625 1226.796875 C-394.92949219 1226.23742188 -394.81992187 1225.67796875 -394.70703125 1225.1015625 C-383.24326966 1167.13034536 -364.43914987 1112.79656153 -338.46777344 1059.72167969 C-337.15050183 1057.02500951 -335.8473899 1054.32196506 -334.546875 1051.6171875 C-328.53125198 1039.22225183 -321.70163732 1027.37097392 -314.65966797 1015.53417969 C-313.23858345 1013.13387845 -311.83734713 1010.72413856 -310.44921875 1008.3046875 C-303.46147457 996.15696196 -295.79802353 984.4632729 -288.0390625 972.796875 C-287.54792969 972.05550293 -287.05679688 971.31413086 -286.55078125 970.55029297 C-278.58093663 958.56394524 -269.84638811 947.17569941 -261.0390625 935.796875 C-260.51248047 935.11286621 -259.98589844 934.42885742 -259.44335938 933.72412109 C-250.46348778 922.06418688 -240.94146387 910.90964664 -231.04296875 900.01953125 C-229.21572165 897.99281858 -227.4367036 895.93374224 -225.6640625 893.859375 C-221.95398706 889.5884742 -217.92752982 885.6526725 -213.8828125 881.703125 C-211.69926399 879.52808935 -209.68186435 877.24950207 -207.67578125 874.91015625 C-204.13689034 870.82593121 -200.32472939 867.14165492 -196.3515625 863.484375 C-195.65458252 862.83774902 -194.95760254 862.19112305 -194.23950195 861.52490234 C-192.83357966 860.22194674 -191.42597851 858.92080003 -190.01660156 857.62158203 C-188.24490912 855.98681298 -186.48041668 854.34477313 -184.71875 852.69921875 C-178.36850872 846.78903269 -171.8084415 841.21956057 -165.0390625 835.796875 C-163.93144315 834.88644799 -162.8247145 833.97493657 -161.71875 833.0625 C-111.2845094 791.70725564 -44.63534677 753.96615576 22.6640625 758.99902344 C44.28582923 761.14339776 62.81060548 768.74741348 77.9609375 784.796875 C102.07463045 814.76564995 104.32989988 851.63511683 100.43920898 888.4230957 C91.16721762 967.76375572 49.4070972 1040.31601269 -0.58300781 1101.02050781 C-1.87867547 1102.60120498 -3.15918883 1104.19429645 -4.4375 1105.7890625 C-9.42665845 1112.00299631 -14.70939174 1117.87034797 -20.1484375 1123.6875 C-22.57730882 1126.28692926 -24.93992321 1128.93745321 -27.2890625 1131.609375 C-31.41648113 1136.2121636 -35.73940737 1140.60567377 -40.1015625 1144.984375 C-40.7625293 1145.64993408 -41.42349609 1146.31549316 -42.10449219 1147.0012207 C-46.00167035 1150.88632283 -50.00929849 1154.58289282 -54.17504883 1158.17797852 C-56.79130425 1160.45019721 -59.31590355 1162.80998849 -61.8515625 1165.171875 C-66.44330931 1169.40873917 -71.14860364 1173.45093383 -76.01953125 1177.3671875 C-78.2457341 1179.15851761 -80.45394366 1180.96425803 -82.65234375 1182.7890625 C-109.239821 1204.78522209 -138.45217544 1223.15618013 -168.0390625 1240.796875 C-168.93963379 1241.36156494 -169.84020508 1241.92625488 -170.76806641 1242.50805664 C-173.0390625 1243.796875 -173.0390625 1243.796875 -175.0390625 1243.796875 C-174.38825724 1237.50365133 -173.60366098 1231.2732252 -172.4765625 1225.046875 C-172.35732422 1224.22316406 -172.23808594 1223.39945313 -172.11523438 1222.55078125 C-171.48354222 1219.18356383 -170.98500594 1216.67398887 -168.41845703 1214.29418945 C-166.34524424 1212.9851301 -164.23570704 1211.88506844 -162.0390625 1210.796875 C-160.59524759 1209.95738257 -159.15782496 1209.10681252 -157.7265625 1208.24609375 C-156.5967395 1207.58178345 -156.5967395 1207.58178345 -155.4440918 1206.90405273 C-137.32413146 1196.20792347 -119.80883342 1184.50654355 -103.0390625 1171.796875 C-101.93757959 1170.97254989 -100.83601738 1170.14833073 -99.734375 1169.32421875 C-93.33458323 1164.50169924 -87.18322913 1159.44173218 -81.13305664 1154.18774414 C-77.62202376 1151.13903725 -74.05564084 1148.19025549 -70.4140625 1145.296875 C-65.7375503 1141.50883124 -61.52243127 1137.40018638 -57.3190918 1133.10644531 C-54.55243747 1130.28497435 -51.7437748 1127.59810857 -48.7265625 1125.046875 C-45.47865735 1122.27816897 -42.76435364 1119.27378525 -40.01171875 1116.01953125 C-37.67318189 1113.38462536 -35.18295986 1110.94721901 -32.6640625 1108.484375 C-28.22938415 1104.12128449 -24.2241374 1099.53647879 -20.34765625 1094.671875 C-18.2763033 1092.09232209 -16.15701425 1089.57046238 -14.00439453 1087.05932617 C34.41540563 1030.54147033 81.39535042 951.77163079 82.19921875 875.30859375 C82.20905792 874.53156601 82.21889709 873.75453827 82.22903442 872.95396423 C82.48556971 847.47861127 82.33908626 820.73249399 63.9609375 800.796875 C63.1565625 799.91 62.3521875 799.023125 61.5234375 798.109375 C48.31572664 786.19022129 33.98795654 782.39594009 16.4609375 782.484375 C15.32035889 782.48856445 14.17978027 782.49275391 13.00463867 782.49707031 C3.39422185 782.62420833 -5.67876005 783.68318264 -15.0390625 785.796875 C-16.79863281 786.16232422 -16.79863281 786.16232422 -18.59375 786.53515625 C-79.68872572 800.89043451 -140.85977946 847.5129546 -181.13671875 894.61328125 C-183.04583299 896.80464646 -185.00883951 898.93994913 -186.98608398 901.06982422 C-192.59583696 907.1178841 -197.86834363 913.36683589 -203.0390625 919.796875 C-204.0116572 920.97898785 -204.98570145 922.15990906 -205.9609375 923.33984375 C-264.86779341 994.81154755 -308.25304743 1076.86658291 -336.42962646 1164.89758301 C-336.97948039 1166.61118887 -337.53550934 1168.32281034 -338.09228516 1170.03417969 C-342.17655529 1182.61330514 -345.5502468 1195.35411918 -348.7890625 1208.171875 C-348.98019623 1208.92283447 -349.17132996 1209.67379395 -349.36825562 1210.44750977 C-354.13805907 1227.91462519 -354.13805907 1227.91462519 -356.0390625 1245.796875 C-341.29194559 1249.43425767 -326.58632055 1251.8080297 -311.51757812 1253.54003906 C-310.84410339 1253.61794678 -310.17062866 1253.69585449 -309.47674561 1253.77612305 C-307.63572848 1253.98712985 -305.79395802 1254.19153382 -303.95214844 1254.39550781 C-301.0390625 1254.796875 -301.0390625 1254.796875 -298.0390625 1255.796875 C-297.58983301 1263.28403318 -298.75988776 1270.64983321 -301.0390625 1277.796875 C-306.14577609 1281.20135073 -312.29942206 1280.13820969 -318.2890625 1280.109375 C-319.32518173 1280.1086348 -319.32518173 1280.1086348 -320.38223267 1280.10787964 C-334.32006492 1280.07740053 -348.49777074 1279.34326724 -362.0390625 1275.796875 C-362.09964844 1276.81523438 -362.16023437 1277.83359375 -362.22265625 1278.8828125 C-362.26269775 1279.55546143 -362.30273926 1280.22811035 -362.34399414 1280.92114258 C-362.4344771 1282.45735326 -362.52344108 1283.99365397 -362.61108398 1285.5300293 C-362.82375255 1289.24556212 -363.05098308 1292.95651415 -363.328125 1296.66796875 C-365.5331049 1328.45117906 -364.34992864 1360.81198751 -360.64892578 1392.4375 C-360.40790336 1394.55578158 -360.21397956 1396.67216136 -360.0390625 1398.796875 C-359.95462891 1399.62985107 -359.87019531 1400.46282715 -359.78320312 1401.32104492 C-359.51256742 1405.7769281 -359.49072251 1408.80690059 -362.4609375 1412.30078125 C-363.54312844 1413.34912262 -364.65426282 1414.36822085 -365.7890625 1415.359375 C-366.66183838 1416.17172607 -366.66183838 1416.17172607 -367.55224609 1417.00048828 C-372.95348003 1421.93763349 -378.68162742 1427.14387262 -385.0390625 1430.796875 C-386.0290625 1430.466875 -387.0190625 1430.136875 -388.0390625 1429.796875 C-388.85107422 1428.09228516 -388.85107422 1428.09228516 -389.46875 1425.8359375 C-389.70424561 1424.98604248 -389.93974121 1424.13614746 -390.18237305 1423.26049805 C-390.42383057 1422.32375244 -390.66528809 1421.38700684 -390.9140625 1420.421875 C-391.1716333 1419.44452393 -391.4292041 1418.46717285 -391.69458008 1417.46020508 C-396.86528031 1397.23387629 -400.06634109 1376.56756837 -402.0390625 1355.796875 C-402.13550049 1354.7960791 -402.23193848 1353.7952832 -402.33129883 1352.76416016 C-403.28231493 1341.45528302 -403.23450704 1330.13815206 -403.2265625 1318.796875 C-403.2272876 1317.74371094 -403.2280127 1316.69054688 -403.22875977 1315.60546875 C-403.22744239 1298.25820252 -402.63145929 1281.0760742 -401.0390625 1263.796875 C-405.95028726 1260.47807766 -410.89012853 1257.24192756 -415.96044922 1254.17163086 C-423.50269388 1249.58803478 -430.39989503 1244.63975603 -437.0390625 1238.796875 C-437.86664062 1238.07886719 -438.69421875 1237.36085938 -439.546875 1236.62109375 C-450.59290733 1226.87357619 -460.32940101 1216.64809716 -469.0390625 1204.796875 C-469.44447266 1204.2517627 -469.84988281 1203.70665039 -470.26757812 1203.14501953 C-509.96926429 1149.06690446 -520.25890391 1078.15003413 -520.2890625 1012.796875 C-520.29007462 1010.82636169 -520.29007462 1010.82636169 -520.29110718 1008.81604004 C-520.2829845 986.99967582 -519.48541723 965.47444348 -517.0390625 943.796875 C-516.95420593 943.02800964 -516.86934937 942.25914429 -516.78192139 941.46697998 C-506.38996405 847.47610509 -481.87910879 755.77745875 -424.0390625 596.796875 C-423.70044189 595.96812866 -423.36182129 595.13938232 -423.01293945 594.28552246 C-417.47915952 580.75359424 -411.88242044 567.24807484 -406.2666626 553.75 C-405.04480876 550.81069826 -403.82545103 547.8703738 -402.60693359 544.9296875 C-385.54610296 503.7629421 -385.54610296 503.7629421 -376.0390625 483.796875 C-376.52970184 483.95574692 -377.02034119 484.11461884 -377.52584839 484.27830505 C-381.08463396 485.01261545 -384.63063769 485.02361695 -388.25048828 485.09399414 C-389.07737656 485.11364731 -389.90426483 485.13330048 -390.75621033 485.15354919 C-393.49885025 485.21753033 -396.24158426 485.27491 -398.984375 485.33203125 C-400.91178072 485.37512898 -402.83917933 485.41854563 -404.76657104 485.46226501 C-408.82349053 485.5533029 -412.88046205 485.64121442 -416.9375 485.72680664 C-422.05875073 485.83498443 -427.17983078 485.94959742 -432.30089188 486.06637001 C-453.2148596 486.54134007 -474.11850269 486.98451456 -495.0390625 486.796875 C-495.33981689 487.57812744 -495.64057129 488.35937988 -495.95043945 489.16430664 C-497.08917895 491.91806937 -498.42017954 493.86972799 -500.2265625 496.234375 C-504.37801609 501.8222917 -508.3156176 507.53836461 -512.2265625 513.296875 C-512.8764917 514.25327881 -513.5264209 515.20968262 -514.19604492 516.19506836 C-515.51301348 518.13373573 -516.82966529 520.0726183 -518.14599609 522.01171875 C-520.93393977 526.11345481 -523.73602818 530.20544365 -526.5390625 534.296875 C-536.56690999 548.94456888 -546.55912609 563.61650617 -556.5390625 578.296875 C-568.14480701 595.36878838 -579.77544449 612.42353638 -591.4375 629.45703125 C-593.07618444 631.85110924 -594.71399698 634.24578154 -596.3515625 636.640625 C-599.57906233 641.36051695 -602.80833035 646.07919499 -606.0390625 650.796875 C-606.49458496 651.46219238 -606.95010742 652.12750977 -607.41943359 652.81298828 C-613.9456243 662.34011526 -620.53121598 671.82516209 -627.1315918 681.30102539 C-630.99458337 686.84940244 -634.84239592 692.40746643 -638.6640625 697.984375 C-649.24417403 713.40656995 -660.01559154 728.68833174 -671.0390625 743.796875 C-671.59029785 744.55291016 -672.1415332 745.30894531 -672.70947266 746.08789062 C-681.98297897 758.7878064 -691.47246066 771.31674807 -701.0390625 783.796875 C-701.98831724 785.03773289 -702.93754008 786.27861517 -703.88671875 787.51953125 C-716.28232095 803.70301112 -728.92811085 819.6915618 -742.15185547 835.20849609 C-745.03688634 838.59674232 -747.86411101 842.02561139 -750.6640625 845.484375 C-754.24423285 849.88632823 -757.98932411 854.09802089 -761.8125 858.2890625 C-764.01767007 860.77278036 -766.09417254 863.32482205 -768.1640625 865.921875 C-772.69151373 871.52539299 -777.58256343 876.74628433 -782.54736328 881.96337891 C-786.27646315 885.88609561 -789.89769746 889.87433597 -793.42529297 893.97973633 C-795.57811722 896.40386203 -797.88251273 898.65322814 -800.19673157 900.92196655 C-801.97631987 902.73302291 -803.63181658 904.60161353 -805.28149414 906.53100586 C-808.9141688 910.7070869 -812.74149742 914.64412992 -816.66015625 918.55078125 C-817.36374771 919.25532944 -818.06733917 919.95987762 -818.79225159 920.68577576 C-820.26920898 922.16340867 -821.74740992 923.63979957 -823.22680664 925.11499023 C-825.47071335 927.35353981 -827.70922954 929.59737973 -829.94726562 931.84179688 C-831.39290868 933.28677904 -832.83886195 934.73145092 -834.28515625 936.17578125 C-834.9437413 936.83639053 -835.60232635 937.49699982 -836.28086853 938.17762756 C-840.15783851 942.03542721 -844.14801819 945.70350409 -848.28709412 949.27848816 C-850.21819633 950.95212577 -852.08759529 952.67841684 -853.93359375 954.4453125 C-854.57321045 955.05342773 -855.21282715 955.66154297 -855.87182617 956.28808594 C-856.52513916 956.90973633 -857.17845215 957.53138672 -857.8515625 958.171875 C-863.18924785 963.21257635 -868.59922393 968.05433948 -874.34375 972.6328125 C-877.39968171 975.08641564 -880.37392394 977.62450277 -883.3515625 980.171875 C-889.54646233 985.4453261 -895.90202741 990.4926961 -902.33349609 995.47363281 C-903.96526514 996.73962025 -905.5906496 998.01337964 -907.21484375 999.2890625 C-926.49448827 1014.31902199 -946.84983953 1028.36572865 -968.00732422 1040.61914062 C-969.46203565 1041.4623908 -970.91386456 1042.31062139 -972.36376953 1043.16210938 C-1015.63759671 1068.56841669 -1061.27538582 1086.39569387 -1111.0390625 1093.796875 C-1111.80653809 1093.9110376 -1112.57401367 1094.0252002 -1113.36474609 1094.14282227 C-1148.72330928 1098.72664533 -1186.03663463 1092.55033357 -1217.0390625 1074.796875 C-1218.04356445 1074.22864014 -1218.04356445 1074.22864014 -1219.06835938 1073.64892578 C-1228.84557501 1068.04653532 -1237.04092912 1061.70360114 -1245.0390625 1053.796875 C-1245.90015625 1053.00796875 -1246.76125 1052.2190625 -1247.6484375 1051.40625 C-1270.88006414 1029.61758153 -1282.00418484 995.65912243 -1283.16308594 964.45776367 C-1284.44832519 905.22965496 -1264.41897999 850.88868419 -1232.0390625 801.796875 C-1231.5140918 800.99717285 -1230.98912109 800.1974707 -1230.44824219 799.37353516 C-1222.92372477 787.96768572 -1214.83642654 777.24566914 -1206.0390625 766.796875 C-1204.69110315 765.17285504 -1203.34493971 763.54737724 -1202.00024414 761.9206543 C-1191.83859024 749.8409699 -1180.93055067 738.52171061 -1169.75585938 727.38330078 C-1167.77356006 725.4064149 -1165.79673617 723.42416461 -1163.8203125 721.44140625 C-1157.73249194 715.35005801 -1151.65981142 709.31548491 -1145.0390625 703.796875 C-1144.01763966 702.91995702 -1142.99678122 702.04238109 -1141.9765625 701.1640625 C-1128.14666013 689.43071448 -1114.09080773 678.16177362 -1099.40185547 667.515625 C-1097.12722553 665.86100682 -1094.86500541 664.1907727 -1092.60546875 662.515625 C-1081.1043065 654.0310768 -1069.18951612 646.31546231 -1057.0390625 638.796875 C-1055.95802246 638.1260791 -1054.87698242 637.4552832 -1053.76318359 636.76416016 C-992.98505722 599.15207535 -928.42207442 568.60046006 -861.0390625 544.796875 C-860.14674927 544.48039001 -859.25443604 544.16390503 -858.33508301 543.83782959 C-771.71432202 513.14168835 -682.0507497 491.30067036 -591.17119217 477.68049431 C-589.14506776 477.37683671 -587.1191925 477.07156021 -585.09335327 476.76600647 C-578.55610017 475.78208173 -572.01648374 474.81976249 -565.47119141 473.89038086 C-563.10051516 473.54068127 -560.72990614 473.19052563 -558.359375 472.83984375 C-557.27015747 472.69222595 -556.18093994 472.54460815 -555.05871582 472.39251709 C-554.05723511 472.24131409 -553.05575439 472.09011108 -552.02392578 471.93432617 C-551.1532547 471.81047043 -550.28258362 471.68661469 -549.38552856 471.55900574 C-545.17581272 470.19169261 -542.83767928 466.71790393 -540.3671875 463.20703125 C-539.63060913 462.17074585 -539.63060913 462.17074585 -538.87915039 461.11352539 C-538.35442139 460.36965576 -537.82969238 459.62578613 -537.2890625 458.859375 C-532.34632297 451.930745 -527.28110902 445.11269236 -522.1015625 438.359375 C-516.96554191 431.66107144 -511.89631752 424.92283527 -506.9140625 418.109375 C-501.78052442 411.09579596 -496.51336697 404.20227904 -491.15234375 397.36132812 C-487.34025523 392.49127796 -483.60390638 387.5725388 -479.9140625 382.609375 C-475.07064803 376.10471987 -470.05970587 369.75342784 -464.96875 363.44140625 C-462.14581301 359.94018282 -459.37004131 356.40371084 -456.6015625 352.859375 C-452.09776051 347.10175239 -447.50140082 341.42384609 -442.87744141 335.76245117 C-439.35440039 331.44090294 -435.89763305 327.07437989 -432.4765625 322.671875 C-428.26312871 317.26107641 -423.87464679 312.02761589 -419.38525391 306.84423828 C-416.31106436 303.29324384 -413.30549592 299.69947789 -410.3515625 296.046875 C-406.79577158 291.66460295 -403.07173719 287.47727738 -399.26953125 283.30859375 C-397.04386899 280.80228756 -394.94384689 278.22763107 -392.8515625 275.609375 C-387.94670654 269.54080102 -382.61151249 263.90980836 -377.26171875 258.234375 C-374.35583137 255.1484769 -371.54651236 251.99409357 -368.77734375 248.78515625 C-364.6263052 244.0371144 -360.31980791 239.42767427 -356.0390625 234.796875 C-355.51308975 234.22733597 -354.987117 233.65779694 -354.44520569 233.07099915 C-344.83850671 222.68894516 -334.98109714 212.58146807 -324.96606445 202.59350586 C-322.57580143 200.20867245 -320.19102492 197.81844395 -317.80664062 195.42773438 C-316.26073768 193.88249128 -314.71452507 192.33755791 -313.16796875 190.79296875 C-312.4688588 190.09183456 -311.76974884 189.39070038 -311.04945374 188.6683197 C-307.10463048 184.742008 -303.06336703 180.98726584 -298.84088135 177.36058044 C-295.88990634 174.79958177 -293.06841246 172.10249397 -290.2265625 169.421875 C-285.23495504 164.75129484 -280.13662463 160.30070023 -274.796875 156.02734375 C-272.31145676 154.01718254 -269.88049354 151.95487648 -267.4597168 149.86767578 C-260.23851372 143.65614753 -252.71510264 137.91758539 -245.04443359 132.27441406 C-243.09573214 130.83862868 -241.15455246 129.39321475 -239.21484375 127.9453125 C-202.21316628 100.42061495 -160.75028905 74.84321786 -115.24487305 64.96191406 C-105.94711029 62.8562794 -98.99666112 59.16655978 -92.1640625 52.546875 C-91.14032538 51.57309231 -90.11423467 50.60177863 -89.0859375 49.6328125 C-88.57869141 49.15424805 -88.07144531 48.67568359 -87.54882812 48.18261719 C-84.39669525 45.28942408 -81.02282961 42.66185829 -77.69140625 39.98046875 C-75.04638613 37.80290432 -72.50693725 35.54368737 -69.9765625 33.234375 C-20.17116921 -11.90176267 -20.17116921 -11.90176267 0 0 Z M-237.4941864 160.48731995 C-239.11295236 161.95640094 -240.73788483 163.41873684 -242.3709259 164.87193298 C-248.19308665 170.05528597 -253.79662104 175.40732775 -259.30078125 180.92578125 C-260.55312309 182.176688 -260.55312309 182.176688 -261.83076477 183.4528656 C-263.57891531 185.20034127 -265.32582635 186.94905773 -267.0715332 188.69897461 C-269.72690209 191.35971528 -272.38758867 194.0150543 -275.04882812 196.66992188 C-276.75813331 198.3798877 -278.46712836 200.09016362 -280.17578125 201.80078125 C-280.9613591 202.58433487 -281.74693695 203.36788849 -282.55632019 204.17518616 C-286.71885716 208.35526446 -290.72601836 212.61398328 -294.56993103 217.08963013 C-296.62838449 219.48171293 -298.77278967 221.79146519 -300.9140625 224.109375 C-304.96427542 228.54938284 -308.79440372 233.11621781 -312.56640625 237.79296875 C-315.44789205 241.29354155 -318.42632665 244.69961547 -321.4140625 248.109375 C-326.07007672 253.43929488 -330.54349838 258.86983528 -334.87890625 264.46289062 C-338.32196575 268.90314747 -341.85262076 273.26368482 -345.4140625 277.609375 C-350.43145769 283.74883816 -355.30026793 289.98638022 -360.09326172 296.30224609 C-363.44961438 300.72474614 -366.84412083 305.11365511 -370.27197266 309.48095703 C-377.22232337 318.34414259 -383.88718026 327.37991746 -390.43017578 336.546875 C-393.11897019 340.30710706 -395.83026312 344.05104352 -398.5390625 347.796875 C-399.62375743 349.29943621 -400.70839288 350.80204035 -401.79296875 352.3046875 C-403.94263727 355.28154899 -406.09658427 358.25524338 -408.25390625 361.2265625 C-415.70276587 371.49516188 -423.01517829 381.85280026 -430.26855469 392.26025391 C-432.03413271 394.78981205 -433.80514154 397.31547165 -435.578125 399.83984375 C-444.66490299 412.78089444 -453.62222498 425.80663331 -462.49609375 438.89453125 C-463.06835693 439.7362085 -463.64062012 440.57788574 -464.23022461 441.44506836 C-465.31043393 443.03397999 -466.38828376 444.62449976 -467.46313477 446.21704102 C-470.70381887 450.97953819 -474.12606375 455.54247294 -477.72314453 460.04248047 C-479.13906844 461.56469281 -479.13906844 461.56469281 -479.0390625 462.796875 C-454.14520638 462.94594344 -429.29292138 462.56790506 -404.40930176 461.86975098 C-399.94223524 461.74550971 -395.4750174 461.62695478 -391.0078125 461.5078125 C-382.35141184 461.27615838 -373.69518773 461.03860216 -365.0390625 460.796875 C-359.23794136 449.95660873 -353.61694341 439.0353677 -348.140625 428.02734375 C-347.83888115 427.42117344 -347.5371373 426.81500313 -347.22624969 426.19046402 C-344.40764921 420.52711334 -341.59395899 414.86133142 -338.78515625 409.19311523 C-331.24415187 393.98035731 -323.54688555 378.88781434 -315.29046631 364.04641724 C-314.17382095 362.0391188 -313.06364421 360.02848961 -311.95751953 358.01538086 C-297.23411333 331.24898344 -282.0459134 304.81493794 -266.0390625 278.796875 C-265.43932617 277.82073242 -264.83958984 276.84458984 -264.22167969 275.83886719 C-261.00078888 270.60103738 -257.76292814 265.37415709 -254.50830078 260.15722656 C-253.12479089 257.93459883 -251.75110062 255.70618685 -250.37890625 253.4765625 C-223.62054932 210.27626489 -193.52978363 168.65549922 -161.21875 129.4453125 C-159.73675313 127.64460663 -158.26307456 125.83702929 -156.796875 124.0234375 C-153.12690403 119.48994395 -149.40493212 115.04682193 -145.4765625 110.734375 C-141.09953528 105.92882763 -137.05078431 100.90816938 -133.0390625 95.796875 C-131.70715196 94.12907109 -130.3741922 92.46210299 -129.0390625 90.796875 C-165.45724543 90.796875 -211.79888732 137.08298662 -237.4941864 160.48731995 Z M-576.90332031 496.83154297 C-577.89760764 496.9979661 -577.89760764 496.9979661 -578.91198158 497.16775131 C-581.1062598 497.53652989 -583.29921648 497.91259435 -585.4921875 498.2890625 C-587.05115228 498.55336213 -588.61016417 498.81738403 -590.16921997 499.08114624 C-594.34524579 499.7896799 -598.51991948 500.50587347 -602.6941452 501.22492981 C-605.29277998 501.67251529 -607.89164579 502.11874039 -610.49053955 502.56481934 C-651.95802131 509.6914215 -693.22051929 517.53144474 -734.0390625 527.796875 C-734.86369995 528.00356812 -735.6883374 528.21026123 -736.53796387 528.42321777 C-808.51546065 546.48884492 -879.58149805 569.68950072 -947.0390625 600.796875 C-947.71646484 601.10818359 -948.39386719 601.41949219 -949.09179688 601.74023438 C-992.8859805 621.87047109 -1035.69200428 644.59510709 -1075.125 672.44775391 C-1077.1418607 673.869332 -1079.16791654 675.27708781 -1081.1953125 676.68359375 C-1090.67816787 683.28687267 -1099.92298504 690.16093476 -1109.04736328 697.25048828 C-1110.92439705 698.70784693 -1112.80728566 700.15729203 -1114.69140625 701.60546875 C-1126.94967745 711.07512849 -1138.54992574 721.27784244 -1149.8671875 731.84765625 C-1151.96273823 733.8046635 -1154.07652896 735.73780817 -1156.2109375 737.65234375 C-1164.99947256 745.56954376 -1173.05523651 754.07524638 -1181.0390625 762.796875 C-1182.35970703 764.22773437 -1182.35970703 764.22773437 -1183.70703125 765.6875 C-1188.74269151 771.19985788 -1193.48082918 776.8844912 -1198.0390625 782.796875 C-1198.56242187 783.47476074 -1199.08578125 784.15264648 -1199.625 784.85107422 C-1219.6314188 810.86497599 -1237.65439632 838.27408363 -1250.0390625 868.796875 C-1250.38130859 869.63686035 -1250.72355469 870.4768457 -1251.07617188 871.34228516 C-1264.96122549 906.00933037 -1273.79383963 945.76141034 -1265.0390625 982.796875 C-1264.87277344 983.5074707 -1264.70648437 984.21806641 -1264.53515625 984.95019531 C-1261.84564862 996.00207946 -1257.58523584 1005.8888817 -1252.0390625 1015.796875 C-1251.48347656 1016.79460938 -1250.92789062 1017.79234375 -1250.35546875 1018.8203125 C-1236.01359379 1042.82661639 -1211.816975 1056.85898048 -1185.4296875 1063.98828125 C-1179.99309539 1065.28479573 -1174.59149625 1066.17206517 -1169.0390625 1066.796875 C-1167.88664062 1066.93222656 -1166.73421875 1067.06757812 -1165.546875 1067.20703125 C-1128.5203747 1070.55558169 -1090.05277692 1058.93232793 -1057.0390625 1042.796875 C-1056.06453125 1042.33015381 -1056.06453125 1042.33015381 -1055.0703125 1041.85400391 C-1032.59175597 1031.07745386 -1010.5452844 1018.69748188 -990.58984375 1003.70703125 C-988.09635454 1001.83977823 -985.56520917 1000.04046008 -983.01806641 998.24780273 C-975.14269884 992.69383338 -967.55330457 986.82780688 -960.0390625 980.796875 C-959.40210449 980.28753418 -958.76514648 979.77819336 -958.10888672 979.25341797 C-944.77066949 968.57297621 -931.82128422 957.50712794 -919.33203125 945.84375 C-916.74629413 943.43130477 -914.10994396 941.08101462 -911.46679688 938.73168945 C-906.11092467 933.91374168 -900.98950597 928.89200824 -895.90234375 923.79296875 C-894.97866501 922.87024673 -894.05498627 921.94752472 -893.10331726 920.99684143 C-891.16645674 919.06143983 -889.2313766 917.1242812 -887.29760742 915.18579102 C-884.84030441 912.72277571 -882.37851491 910.2643013 -879.91537189 907.80712795 C-877.5335814 905.42985182 -875.1556423 903.04873837 -872.77734375 900.66796875 C-871.4677343 899.36139565 -871.4677343 899.36139565 -870.13166809 898.02842712 C-865.77596716 893.65614597 -861.55355544 889.22834061 -857.54151917 884.53744507 C-855.0072776 881.60157003 -852.32497772 878.80495328 -849.6640625 875.984375 C-844.96076488 870.9634416 -840.5172191 865.81347638 -836.21484375 860.44140625 C-833.9087455 857.63848252 -831.49754719 854.96684225 -829.0390625 852.296875 C-824.97922605 847.88047356 -821.14582429 843.33523978 -817.37890625 838.66796875 C-814.85172284 835.56700079 -812.26268919 832.52532112 -809.6640625 829.484375 C-804.40250201 823.3040856 -799.38119583 816.95321771 -794.40087891 810.54541016 C-792.63124576 808.27324942 -790.8494047 806.01084305 -789.06689453 803.7487793 C-787.2235549 801.40817446 -785.38544815 799.06348245 -783.54736328 796.71875 C-782.50015566 795.38439934 -781.45155305 794.05114276 -780.40185547 792.71875 C-773.33663126 783.74754895 -766.43870929 774.69065722 -759.79125977 765.4050293 C-756.2863415 760.51091791 -752.72574351 755.66579796 -749.1015625 750.859375 C-742.94662698 742.69381366 -736.88226594 734.46328189 -730.82568359 726.22460938 C-729.05192244 723.81434961 -727.27462606 721.40674076 -725.49609375 719 C-719.25909058 710.55697451 -713.06573555 702.0854886 -706.93334961 693.56616211 C-703.0050728 688.11580439 -699.03184962 682.70011265 -695.0390625 677.296875 C-688.84880755 668.91749825 -682.73431792 660.48579929 -676.64794922 652.03076172 C-673.94894122 648.28327716 -671.24367366 644.54031655 -668.5390625 640.796875 C-667.45569946 639.29689646 -666.37236612 637.79689646 -665.2890625 636.296875 C-658.7890625 627.296875 -652.2890625 618.296875 -645.7890625 609.296875 C-645.25289307 608.55445557 -644.71672363 607.81203613 -644.16430664 607.04711914 C-643.08027834 605.5462195 -641.99613108 604.04540578 -640.91186523 602.54467773 C-638.21318595 598.80913533 -635.51654938 595.07215246 -632.82421875 591.33203125 C-626.69149571 582.81766819 -620.50673461 574.34471298 -614.27197266 565.90478516 C-608.12986616 557.58184751 -602.08115567 549.19255285 -596.0390625 540.796875 C-588.68115185 530.57282752 -581.28700364 520.37871166 -573.79516602 510.25219727 C-567.69878106 503.39386911 -567.69878106 503.39386911 -564.0390625 495.796875 C-568.46163748 495.68563605 -572.54419406 496.09357191 -576.90332031 496.83154297 Z " fill="#F9F0DF" transform="translate(1296.0390625,19.203125)"/>
<path d="M0 0 C0.33 0 0.66 0 1 0 C1.04576025 32.09398689 1.08108871 64.18796439 1.10213066 96.28197635 C1.10463166 100.08275967 1.10722035 103.88354294 1.10986328 107.68432617 C1.11065021 108.81918661 1.11065021 108.81918661 1.11145304 109.97697353 C1.12012321 122.17994739 1.13587423 134.38290215 1.15430559 146.58586473 C1.17309944 159.13476231 1.18413663 171.68364998 1.18817699 184.23256105 C1.19090252 191.95748383 1.19946692 199.68235257 1.21583293 207.40725868 C1.22779192 213.36022904 1.22888771 219.31317262 1.22621536 225.26615524 C1.22675973 227.68662152 1.23065846 230.1070901 1.23841095 232.52754402 C1.29911064 252.47965781 0.47054738 272.29307014 -3.25 291.9375 C-3.46688477 293.10659912 -3.68376953 294.27569824 -3.90722656 295.48022461 C-16.14716274 359.76600605 -44.78899645 419.25110909 -88.8828125 467.66015625 C-90.29015525 469.21550368 -91.68103687 470.78591137 -93.0546875 472.37109375 C-96.74967069 476.63398292 -100.51946172 480.50371917 -104.83203125 484.140625 C-107.29305408 486.25134007 -109.6361849 488.46855249 -112 490.6875 C-157.6243565 532.16418773 -219.25100412 554.28474921 -280.5 554.1875 C-281.56764587 554.18659363 -281.56764587 554.18659363 -282.65686035 554.18566895 C-361.86728965 554.00543544 -449.73058857 533.23984435 -507.6875 475.5 C-508.79524758 474.33673286 -509.89931844 473.16995523 -511 472 C-513.37241821 469.60083955 -515.75608443 467.22845613 -518.21875 464.921875 C-550.18794698 434.48544774 -572.23424229 388.80499288 -573.9609375 344.6328125 C-574.3584708 324.91685241 -570.06684396 307.21168692 -558.8125 290.8125 C-547.31778237 279.31778237 -535.21871387 273.88634253 -519.1875 273.625 C-507.92185767 273.64581946 -498.39417949 276.18776993 -490 284 C-489.01773438 284.90298828 -489.01773438 284.90298828 -488.015625 285.82421875 C-465.96051441 308.2640115 -462.41502176 348.46445234 -455.94921875 377.74951172 C-446.392953 421.02668445 -433.70180975 463.48532333 -402 496 C-401.4225 496.639375 -400.845 497.27875 -400.25 497.9375 C-372.5242818 527.88127566 -327.21562277 536.24428847 -288.375 537.75 C-244.24718317 539.338097 -204.13988573 525.33480674 -171.625 495.375 C-166.77760007 490.82209581 -162.14604797 486.21135197 -158 481 C-157.2575 480.08347656 -156.515 479.16695312 -155.75 478.22265625 C-112.99152034 424.62591278 -95.1628819 353.96740466 -87.6875 287 C-87.60600708 286.27317017 -87.52451416 285.54634033 -87.44055176 284.79748535 C-85.36805912 266.00381825 -84.89475116 247.38610189 -85.03088623 228.48800647 C-85.06568953 223.55825132 -85.08154383 218.62869417 -85.08639526 213.69882202 C-85.08712795 212.97444305 -85.08786064 212.25006408 -85.08861554 211.50373423 C-85.09127181 208.52837286 -85.09331803 205.55301137 -85.0950911 202.57764935 C-85.10086229 194.21443021 -85.12471012 185.85214759 -85.20214844 177.48925781 C-85.26404833 170.79021974 -85.28603623 164.09232335 -85.26333606 157.39302099 C-85.25282831 153.86941112 -85.26073165 150.34831113 -85.31766129 146.82509232 C-85.57972006 129.73973792 -84.21002021 117.13768956 -74.30504608 102.88768673 C-72.51213524 100.29432697 -70.94763584 97.59987444 -69.36328125 94.875 C-68.35224819 93.24632636 -67.33553557 91.62116129 -66.3125 90 C-65.76416504 89.1231958 -65.21583008 88.2463916 -64.65087891 87.34301758 C-60.55148792 80.81290183 -56.35684048 74.36183309 -52 68 C-51.15219318 66.75010212 -50.30454778 65.50009473 -49.45703125 64.25 C-43.17405009 55.01415243 -36.69604155 45.94066145 -30 37 C-29.48147461 36.30729004 -28.96294922 35.61458008 -28.42871094 34.90087891 C-21.24458295 25.33428154 -13.82201539 16.05100635 -6 7 C-4.79148449 5.56265315 -3.58311399 4.12518435 -2.375 2.6875 C-1.59125 1.800625 -0.8075 0.91375 0 0 Z " fill="#F9F0DF" transform="translate(1108,949)"/>
<path d="M0 0 C84 3 84 3 85 4 C85.1125857 5.7048209 85.15500644 7.41430169 85.17053413 9.12276554 C85.18300906 10.24002618 85.19548399 11.35728682 85.20833695 12.50840384 C85.21702014 13.75135338 85.22570334 14.99430292 85.23464966 16.2749176 C85.2474987 17.58347039 85.26034775 18.89202317 85.27358615 20.24022907 C85.30899401 23.88975688 85.33777354 27.5393116 85.36526942 31.18890655 C85.38955774 34.31544198 85.41747167 37.44194139 85.44522573 40.56844766 C85.70699182 70.24336178 85.84859576 99.91924389 85.96293831 129.59504795 C85.9781057 133.46237362 85.99356323 137.329698 86.00927734 141.19702148 C86.01511801 142.63883064 86.01511801 142.63883064 86.02107666 144.10976725 C86.08586505 159.65471803 86.2136375 175.1985229 86.36573304 190.74283756 C86.52064131 206.70771675 86.61064174 222.67200099 86.64017475 238.6376099 C86.66034242 248.4805275 86.7299806 258.32048004 86.86393343 268.16251742 C86.95098592 274.92081872 86.97443413 281.67752821 86.94903661 288.43633372 C86.93622083 292.33091337 86.95020425 296.22023158 87.03995132 300.11391258 C87.57512643 324.57001311 87.57512643 324.57001311 81.35931015 332.23704338 C77.9369114 335.74981328 74.22937177 338.6511032 70.19272208 341.42190826 C66.55797241 344.03782046 63.40585526 347.14789138 60.1875 350.25 C58.96376528 351.39486215 57.73870647 352.53831239 56.51171875 353.6796875 C49.31151451 360.45425415 42.23066786 367.35961361 35.82421875 374.8984375 C33.98387607 377.01857532 32.07793658 379.0683033 30.15820312 381.11645508 C20.3198075 391.65588756 11.8345584 402.92501711 3.99609375 415.015625 C2 418 2 418 0 420 C0 281.4 0 142.8 0 0 Z " fill="#F8F0DE" transform="translate(1024,526)"/>
<path d="M0 0 C0.42410156 1.20914062 0.84820313 2.41828125 1.28515625 3.6640625 C9.82366998 27.66001822 22.45123818 54.15782427 46.78320312 65.85742188 C47.41677734 66.14681641 48.05035156 66.43621094 48.703125 66.734375 C49.34145264 67.02989258 49.97978027 67.32541016 50.63745117 67.62988281 C52.4753798 68.46062189 54.33311181 69.24712576 56.19140625 70.03125 C59 72 59 72 59.98046875 75.6015625 C60 79 60 79 58.75 80.875 C54.02613105 83.9117729 49.31729394 83.48573451 44.07421875 82.38671875 C30.80608604 78.77969345 21.14464994 70.78860697 11.45263672 61.39697266 C10.06249502 60.06010026 8.6431299 58.75381691 7.22265625 57.44921875 C-3.68079755 47.14021437 -11.72965372 34.84912545 -18.8125 21.6875 C-19.25150635 20.88119141 -19.6905127 20.07488281 -20.14282227 19.24414062 C-20.53526123 18.48681641 -20.9277002 17.72949219 -21.33203125 16.94921875 C-21.67983643 16.28237061 -22.0276416 15.61552246 -22.38598633 14.9284668 C-23.15867825 12.50163041 -23.02079781 11.32565692 -22 9 C-19.38403563 7.59890722 -16.92966737 6.45939165 -14.1875 5.375 C-12.74321446 4.77931245 -11.29919578 4.1829774 -9.85546875 3.5859375 C-9.17919434 3.31233398 -8.50291992 3.03873047 -7.80615234 2.75683594 C-6.38222407 2.16016418 -4.99009639 1.48761028 -3.61328125 0.7890625 C-2 0 -2 0 0 0 Z " fill="#F9F0DF" transform="translate(950,1485)"/>
</svg>
