<?xml version="1.0" encoding="UTF-8"?>
<svg version="1.1" xmlns="http://www.w3.org/2000/svg" width="1457" height="1529">
<path d="M0 0 C3.31894562 3.49362696 4.34522461 6.48289114 4.6875 11.1875 C3.92533171 25.76641138 -11.09777368 36.75261065 -21 46 C-23.05900955 47.83108004 -25.13557465 49.63940845 -27.22045898 51.44091797 C-33.31735934 56.78250196 -38.83055035 62.71660147 -44.08984375 68.87109375 C-46.46189489 71.51479083 -48.97281253 74.00641196 -51.5 76.5 C-55.22598844 80.1814672 -58.79856245 83.93295146 -62.19921875 87.91796875 C-64.37324202 90.43153578 -66.62390488 92.86776229 -68.875 95.3125 C-72.94540056 99.77522832 -76.80176909 104.36258 -80.59375 109.0625 C-83.29779889 112.3635467 -86.08144477 115.58735117 -88.875 118.8125 C-94.28748006 125.08691068 -99.44283541 131.52925867 -104.51220703 138.08251953 C-106.10311845 140.13289995 -107.70500001 142.17436906 -109.30859375 144.21484375 C-122.20605065 160.65519903 -134.48882672 177.49791008 -146.38769531 194.67333984 C-147.87709394 196.82263859 -149.37160331 198.96828489 -150.8671875 201.11328125 C-162.46499344 217.8020451 -173.33846753 234.98030712 -184.19970703 252.15380859 C-185.39968656 254.05092839 -186.60118418 255.9470888 -187.80419922 257.84228516 C-202.38377651 280.83029375 -216.08197311 304.32314991 -229.36669922 328.08056641 C-230.48323411 330.07630995 -231.60216085 332.07071673 -232.72314453 334.06396484 C-249.65070926 364.16411765 -265.49913771 394.74987229 -280.84912109 425.68383789 C-281.37529022 426.74293365 -281.90145935 427.80202942 -282.443573 428.89321899 C-283.43813779 430.89621919 -284.43084266 432.90014431 -285.42141724 434.90512085 C-286.08583328 436.2436058 -286.08583328 436.2436058 -286.76367188 437.60913086 C-287.14906128 438.38816269 -287.53445068 439.16719452 -287.93151855 439.96983337 C-289 442 -289 442 -291 445 C-272.38230696 446.47651444 -253.76416916 447.94433299 -235.125 449.125 C-233.96162109 449.20024902 -232.79824219 449.27549805 -231.59960938 449.35302734 C-210.36598983 450.66029916 -189.14722176 451.20750226 -167.875 451.1875 C-166.67455048 451.18689575 -165.47410095 451.1862915 -164.23727417 451.18566895 C-145.74723448 451.16050136 -127.41076654 450.85536835 -109 449 C-107.73961914 448.87641113 -106.47923828 448.75282227 -105.18066406 448.62548828 C-84.15880748 446.48384446 -63.59373177 442.69447361 -43 438 C-41.94554687 437.76055664 -40.89109375 437.52111328 -39.8046875 437.27441406 C-14.84427755 431.48003318 9.98939035 423.14221785 33.20898438 412.30224609 C36.13522709 410.93690506 39.07512522 409.60385593 42.015625 408.26953125 C76.69306107 392.30551513 108.1150105 370.77322391 136.84375 345.71875 C139.64132305 343.28607778 142.52568001 340.98269928 145.4375 338.6875 C156.46491549 329.71245431 166.35214041 319.26601891 175 308 C175.42684082 307.44473633 175.85368164 306.88947266 176.29345703 306.31738281 C178.97631523 302.82888892 178.97631523 302.82888892 181.63989258 299.32568359 C186.00830422 293.57068692 186.00830422 293.57068692 188 292 C191.6875 291.8125 191.6875 291.8125 195 292 C197.37156251 296.08435766 197.09381108 299.04084463 195.94140625 303.42578125 C191.0633536 316.76452273 180.56913146 328.43747734 171.06640625 338.75 C169.24386514 340.7344682 167.49216442 342.75785892 165.75 344.8125 C158.18575324 353.4875802 149.82728584 361.62146718 141 369 C139.77023437 370.06347656 139.77023437 370.06347656 138.515625 371.1484375 C71.3612787 428.47079387 -13.97436848 460.07354414 -100.875 470.1875 C-101.95527466 470.31478485 -101.95527466 470.31478485 -103.05737305 470.44464111 C-123.6879905 472.85162508 -144.23784393 473.27205009 -165 473.3125 C-166.03145519 473.31533052 -166.03145519 473.31533052 -167.08374786 473.31821823 C-198.32742592 473.39579434 -229.4270195 471.76527411 -260.60222626 469.84044838 C-274.39471595 468.99000099 -288.18729049 468.42294062 -302 468 C-302.30091553 468.92401611 -302.60183105 469.84803223 -302.91186523 470.80004883 C-304.07895191 474.23217919 -305.51068023 477.41143604 -307.0625 480.6875 C-307.36849121 481.33775146 -307.67448242 481.98800293 -307.98974609 482.65795898 C-309.6423912 486.16393344 -311.31648577 489.65908425 -313.00390625 493.1484375 C-319.74738721 507.14341571 -325.90316938 521.38501985 -332.00335693 535.66882324 C-333.05033209 538.11772821 -334.10039558 540.5652933 -335.15087891 543.01269531 C-377.29881587 641.28470508 -412.82416658 742.370627 -452 955 C-452.1045752 956.16917969 -452.20915039 957.33835937 -452.31689453 958.54296875 C-453.27064038 970.71815731 -453.24358558 982.91911813 -453.25 995.125 C-453.25067474 996.28062439 -453.25134949 997.43624878 -453.25204468 998.62689209 C-453.23569792 1016.2731444 -452.78771625 1033.54209694 -450 1051 C-449.74259033 1052.638479 -449.74259033 1052.638479 -449.47998047 1054.31005859 C-442.09584186 1099.69050648 -424.34849159 1149.3198518 -385.875 1177.625 C-384.25241162 1178.7534755 -382.62782395 1179.87909002 -381 1181 C-380.96334229 1180.29617188 -380.92668457 1179.59234375 -380.88891602 1178.8671875 C-380.34860074 1170.68164479 -378.85925304 1162.96469786 -376.9375 1155 C-376.78316498 1154.35316254 -376.62882996 1153.70632507 -376.46981812 1153.03988647 C-362.63083324 1095.12358925 -340.90223601 1038.57789086 -311 987 C-310.40010254 985.95908203 -309.80020508 984.91816406 -309.18212891 983.84570312 C-299.95974869 967.89823631 -290.25952958 952.30295474 -280 937 C-279.49629883 936.24654297 -278.99259766 935.49308594 -278.47363281 934.71679688 C-272.13441201 925.26622263 -265.45680179 916.10132096 -258.55908203 907.05175781 C-256.96618102 904.9554941 -255.38658264 902.8496932 -253.80859375 900.7421875 C-246.58709438 891.13966285 -239.00012847 881.96250952 -231 873 C-230.175 872.07445312 -229.35 871.14890625 -228.5 870.1953125 C-227.07651704 868.60872212 -225.64852709 867.02615392 -224.21435547 865.44921875 C-222.87413334 863.96684737 -221.54241933 862.47663659 -220.22705078 860.97216797 C-213.14262818 852.91896645 -205.55358877 845.36749261 -197.97167969 837.78637695 C-195.63186813 835.44437456 -193.30019182 833.09447144 -190.96875 830.74414062 C-184.00532271 823.75467438 -177.09385718 816.92417616 -169.32397461 810.82763672 C-167.1079209 809.08487193 -165.00265209 807.26633597 -162.90234375 805.38671875 C-158.63489607 801.61788066 -154.13077158 798.20644441 -149.5625 794.8125 C-148.68561523 794.16031494 -147.80873047 793.50812988 -146.90527344 792.83618164 C-144.27399009 790.88557501 -141.63726914 788.94250196 -139 787 C-138.27603027 786.46149414 -137.55206055 785.92298828 -136.80615234 785.36816406 C-124.46859168 776.21591581 -111.38192057 768.52028226 -98 761 C-97.2265625 760.56026855 -96.453125 760.12053711 -95.65625 759.66748047 C-65.76536366 742.75083225 -30.86189731 729.85262695 3.74829102 729.75976562 C5.90096246 729.75016299 8.05263408 729.71912815 10.20507812 729.6875 C30.14596248 729.53510179 47.76051712 733.98854817 64 746 C64.64453125 746.45890625 65.2890625 746.9178125 65.953125 747.390625 C83.38777694 760.91470081 92.08767663 784.58032821 95.17749023 805.67993164 C99.57362791 841.24505152 92.85572385 877.2114854 82 911 C81.58645264 912.29429932 81.58645264 912.29429932 81.16455078 913.61474609 C75.09796201 932.34393378 67.17124695 950.43028622 58.09228516 967.88916016 C56.87304627 970.24533795 55.67715008 972.61275891 54.48046875 974.98046875 C41.80386381 999.85982985 26.00866079 1022.89396014 9 1045 C8.54415527 1045.59619141 8.08831055 1046.19238281 7.61865234 1046.80664062 C-2.29021392 1059.74272081 -13.01488967 1071.97046492 -24 1084 C-24.45197754 1084.49709473 -24.90395508 1084.99418945 -25.36962891 1085.50634766 C-34.09937107 1095.09886233 -42.90237784 1104.63876086 -52.78515625 1113.06640625 C-55.11310952 1115.0987464 -57.37115762 1117.19342839 -59.62890625 1119.30297852 C-65.88332976 1125.14291949 -72.30850519 1130.66113667 -79 1136 C-80.12969208 1136.92091185 -81.25855532 1137.84284111 -82.38671875 1138.765625 C-96.63727434 1150.36992357 -111.57499593 1161.01684766 -127 1171 C-127.83047852 1171.5377002 -128.66095703 1172.07540039 -129.51660156 1172.62939453 C-139.10655187 1178.82052822 -148.7368531 1184.93831743 -158.5625 1190.75 C-159.24618652 1191.15605469 -159.92987305 1191.56210938 -160.63427734 1191.98046875 C-164.01484715 1193.95567153 -167.35213561 1195.59244886 -171 1197 C-170.30317756 1192.76484316 -169.56197264 1188.5386308 -168.8125 1184.3125 C-168.51762695 1182.51522461 -168.51762695 1182.51522461 -168.21679688 1180.68164062 C-166.21373958 1169.61860113 -166.21373958 1169.61860113 -161 1166 C-158.70110551 1164.59496485 -156.44179925 1163.30941677 -154.0625 1162.0625 C-122.87324316 1145.09068361 -93.1194835 1123.2661704 -67.23828125 1098.9921875 C-65.01148812 1096.90959986 -62.73251962 1094.90939817 -60.4140625 1092.9296875 C-54.9681837 1088.18606267 -49.88662357 1083.07265433 -44.7824707 1077.96777344 C-43.07456944 1076.26205402 -41.35881955 1074.56450973 -39.64257812 1072.8671875 C-33.71360766 1066.96816214 -28.14283521 1060.97253546 -22.92895508 1054.41699219 C-20.80210645 1051.7520382 -18.57033912 1049.20850602 -16.29907227 1046.66723633 C-8.8774853 1038.34369923 -2.24710593 1029.524601 4.23828125 1020.46044922 C5.39964119 1018.8384723 6.5661996 1017.22020319 7.73828125 1015.60595703 C45.39061444 963.74900491 77.50435853 898.75761854 77.31567383 833.29101562 C77.31250114 831.00082214 77.33614945 828.71191175 77.36132812 826.421875 C77.45445438 805.01100299 72.69884159 783.36169199 57.6875 767.1875 C44.34965989 754.77053526 26.91020798 751.7016893 9.26660156 752.0546875 C-51.97378092 755.07123658 -108.12107378 795.31488985 -151.51611328 835.63378906 C-152.99686579 836.99711434 -154.49330326 838.3407222 -155.99609375 839.6796875 C-162.9677896 845.91614926 -169.37981434 852.51782046 -175.62890625 859.47607422 C-176.89032995 860.87810533 -178.16338137 862.26965178 -179.4375 863.66015625 C-183.99191618 868.64945591 -188.31774253 873.78079501 -192.5625 879.03515625 C-194.76439184 881.71341892 -197.01589 884.333265 -199.29516602 886.94506836 C-205.7134953 894.31556169 -211.63403527 901.96980187 -217.4140625 909.84765625 C-219.05509876 912.07477688 -220.71333299 914.28823775 -222.375 916.5 C-276.8736318 989.30001145 -315.25608996 1073.5317506 -342.95703125 1186.13671875 C-343.86519037 1190.45493468 -344.90056668 1194.72663701 -346 1199 C-337.30886753 1200.88001536 -328.54005834 1202.18991464 -319.75 1203.5 C-318.32418731 1203.71463498 -316.89840587 1203.92947769 -315.47265625 1204.14453125 C-306.65426301 1205.47131309 -297.82991714 1206.75202908 -289 1208 C-288.60636312 1215.74152536 -290.05789567 1222.52058632 -292 1230 C-304.59915476 1233.99796188 -317.81044 1231.85994074 -330.75 1230.5625 C-331.42273956 1230.49519684 -332.09547913 1230.42789368 -332.78860474 1230.35855103 C-345.0619834 1229.11424966 -345.0619834 1229.11424966 -349 1228 C-352.66462448 1243.76144314 -352.23656935 1259.8501274 -352.25 1275.9375 C-352.25200409 1277.10297363 -352.25400818 1278.26844727 -352.256073 1279.46923828 C-352.26377656 1297.83956976 -351.49144785 1315.99750073 -349.75390625 1334.28125 C-349.63176758 1335.58860107 -349.50962891 1336.89595215 -349.38378906 1338.24291992 C-349.12979544 1340.72937533 -348.83538598 1343.21206297 -348.49902344 1345.6887207 C-347.36452434 1355.09084878 -347.36452434 1355.09084878 -350.0703125 1358.54296875 C-351.52001953 1359.90332031 -351.52001953 1359.90332031 -353.125 1361.1875 C-353.66108887 1361.66670898 -354.19717773 1362.14591797 -354.74951172 1362.63964844 C-356.46329278 1364.14373052 -358.22019423 1365.57490064 -360 1367 C-360.59941406 1367.49258301 -361.19882812 1367.98516602 -361.81640625 1368.49267578 C-372.21268764 1377 -372.21268764 1377 -375 1377 C-386.19645475 1341.93365661 -390.21310507 1305.55284118 -390.1875 1268.875 C-390.1882251 1267.81861328 -390.1889502 1266.76222656 -390.18969727 1265.67382812 C-390.18843579 1249.0324629 -389.6814085 1232.56366242 -388 1216 C-388.99257813 1215.39414063 -389.98515625 1214.78828125 -391.0078125 1214.1640625 C-412.70677962 1200.82616528 -432.12720477 1186.10911558 -448 1166 C-448.721875 1165.09507813 -449.44375 1164.19015625 -450.1875 1163.2578125 C-502.33588258 1096.02364781 -509.0193457 1001.72753163 -501 920 C-500.92458984 919.22110413 -500.84917969 918.44220825 -500.77148438 917.63970947 C-491.51051714 822.63839238 -467.19017638 730.27603219 -406.86474609 565.10400391 C-406.0523754 563.127434 -405.24247085 561.14987671 -404.43359375 559.171875 C-401.55657604 552.14427975 -398.64763485 545.13055445 -395.71972656 538.12402344 C-394.07897663 534.19431709 -392.44984143 530.25984045 -390.8210144 526.32518005 C-389.27017509 522.5818556 -387.7145427 518.84053292 -386.15814209 515.09951782 C-385.40733462 513.29273278 -384.65809143 511.4852966 -383.91070557 509.67709351 C-377.67316125 494.59478774 -370.91794249 479.78133271 -364 465 C-364.73723297 465.02283554 -365.47446594 465.04567108 -366.23403931 465.06919861 C-371.21349055 465.22316858 -376.19294241 465.37700904 -381.17250061 465.52748108 C-382.61329164 465.57104801 -384.05408244 465.61462218 -385.49487305 465.65820312 C-386.60436168 465.6917422 -386.60436168 465.6917422 -387.73626423 465.72595882 C-392.32964212 465.86553946 -396.92278038 466.0112607 -401.51582623 466.16135216 C-416.15087613 466.63765175 -430.76536189 467.07172969 -445.41015625 467.00390625 C-447.53108784 467.00517482 -449.65201914 467.00718062 -451.77294922 467.01000977 C-454.70342745 467.01361455 -457.62845684 467.00139156 -460.5581665 466.93234253 C-470.70928111 466.3692215 -470.70928111 466.3692215 -479.79467773 470.04907227 C-481.88787762 472.59703254 -483.45494811 475.09297336 -485 478 C-485.82387385 479.2058559 -486.65946628 480.40387482 -487.51171875 481.58984375 C-488.22972656 482.69457031 -488.94773437 483.79929687 -489.6875 484.9375 C-490.53793411 486.23381389 -491.38955694 487.52934848 -492.2421875 488.82421875 C-492.6865918 489.5001709 -493.13099609 490.17612305 -493.58886719 490.87255859 C-496.12278393 494.69272303 -498.719013 498.47013476 -501.3125 502.25 C-502.13584839 503.45100342 -502.13584839 503.45100342 -502.97583008 504.67626953 C-504.09542327 506.30894846 -505.2152973 507.94143483 -506.33544922 509.57373047 C-509.01844651 513.48450006 -511.69691019 517.39836875 -514.375 521.3125 C-514.91020264 522.09471924 -515.44540527 522.87693848 -515.99682617 523.68286133 C-525.90264903 538.16422393 -535.77764338 552.66633356 -545.625 567.1875 C-552.54655601 577.3940659 -559.48957788 587.58554212 -566.46289062 597.75683594 C-568.63211262 600.92246677 -570.79784621 604.09047924 -572.96386719 607.25830078 C-578.41117079 615.22430179 -583.86900681 623.18295625 -589.33984375 631.1328125 C-591.08427489 633.66773869 -592.82643213 636.20420008 -594.56640625 638.7421875 C-600.70237618 647.68807682 -606.88780722 656.5988112 -613.08984375 665.49902344 C-616.53768985 670.44956672 -619.97230858 675.40812159 -623.37451172 680.39013672 C-629.20945397 688.93315183 -635.24240485 697.32354635 -641.32519531 705.69140625 C-643.02173729 708.02996324 -644.71119643 710.37347522 -646.3984375 712.71875 C-652.51077487 721.21396813 -658.66856146 729.66610155 -665 738 C-665.58152832 738.76715332 -666.16305664 739.53430664 -666.76220703 740.32470703 C-678.76783468 756.1577826 -690.95290256 771.80333762 -703.5234375 787.19140625 C-704.83047541 788.7923548 -706.13423356 790.39597976 -707.4375 792 C-711.86652199 797.44136988 -716.36677216 802.81649395 -720.91235352 808.16040039 C-723.84308541 811.61178688 -726.71729231 815.1023619 -729.5625 818.625 C-733.3838008 823.32499563 -737.41949151 827.7849281 -741.5234375 832.23828125 C-743.98792005 834.98652914 -746.31442683 837.80920868 -748.625 840.6875 C-751.83683472 844.66836557 -755.17328794 848.33554211 -758.8828125 851.85546875 C-761.43873032 854.44439658 -763.79744303 857.17717221 -766.18310547 859.92260742 C-776.89544069 872.17082839 -788.51032106 883.61504555 -800 895.125 C-800.67957764 895.80716583 -801.35915527 896.48933167 -802.05932617 897.19216919 C-815.20615104 910.37842819 -815.20615104 910.37842819 -821.32177734 915.56689453 C-824.2477075 918.06547033 -827.01424667 920.73550422 -829.8125 923.375 C-834.80065137 928.04234634 -839.89598881 932.48944857 -845.23046875 936.76171875 C-847.76788974 938.81241301 -850.2540187 940.90855758 -852.73144531 943.03051758 C-859.07959016 948.46491431 -865.57797516 953.64822257 -872.25048828 958.68017578 C-874.0962497 960.07261037 -875.93675292 961.47183331 -877.77734375 962.87109375 C-934.74476504 1006.04409414 -999.28573253 1042.19292069 -1071 1052 C-1071.70576172 1052.103125 -1072.41152344 1052.20625 -1073.13867188 1052.3125 C-1080.51692364 1053.28059302 -1087.94474844 1053.24267478 -1095.375 1053.25 C-1096.08453827 1053.25100708 -1096.79407654 1053.25201416 -1097.52511597 1053.25305176 C-1108.92212697 1053.24213277 -1119.86370569 1052.534486 -1131 1050 C-1132.86785156 1049.59974609 -1132.86785156 1049.59974609 -1134.7734375 1049.19140625 C-1168.95845567 1040.99137524 -1200.68565592 1021.19243062 -1219.25048828 990.96386719 C-1240.93794853 954.31266588 -1242.02702268 908.49595098 -1232.25683594 867.91308594 C-1219.83405404 819.88341014 -1195.01673986 774.73601738 -1163 737 C-1162.14114193 735.9681009 -1161.28310767 734.93551573 -1160.42578125 733.90234375 C-1150.21542975 721.64781168 -1139.29467175 710.12308546 -1127.99853516 698.86816406 C-1126.23351456 697.1085652 -1124.47398867 695.34359603 -1122.71484375 693.578125 C-1116.97912481 687.83868333 -1111.20958108 682.23143157 -1105 677 C-1103.88155739 676.02748323 -1102.76434129 675.05355387 -1101.6484375 674.078125 C-1093.62446144 667.12716478 -1085.43310314 660.44787847 -1077 654 C-1075.89011719 653.15115234 -1075.89011719 653.15115234 -1074.7578125 652.28515625 C-1010.93607256 603.63415777 -939.61245833 565.29751151 -865 536 C-864.31006958 535.72885376 -863.62013916 535.45770752 -862.90930176 535.17834473 C-821.54144452 518.9599067 -779.26393242 505.05190748 -736.32525635 493.6192627 C-733.97566156 492.99351818 -731.62721117 492.36360084 -729.27880859 491.73339844 C-669.5425553 475.7536805 -608.95095042 464.94655135 -547.9597168 455.10986328 C-546.80418304 454.91990784 -545.64864929 454.72995239 -544.45809937 454.53424072 C-542.09809165 454.16964385 -539.73132224 453.84696167 -537.36050415 453.56097412 C-535.62708267 453.34299164 -535.62708267 453.34299164 -533.85864258 453.12060547 C-532.83104324 453.0052243 -531.80344391 452.88984314 -530.7447052 452.77096558 C-525.30152017 451.24201876 -522.91030323 446.53960078 -520 442 C-518.90494848 440.45017298 -517.80934599 438.90068569 -516.70166016 437.35986328 C-515.88801372 436.22750284 -515.0792246 435.0916391 -514.27490234 433.95263672 C-508.33774187 425.56670365 -502.01103738 417.46798923 -495.76513672 409.31152344 C-493.6592071 406.55371685 -491.57557644 403.78071469 -489.5 401 C-484.74033288 394.62950863 -479.90876097 388.31415735 -475.08300781 381.99365234 C-470.93919231 376.5613177 -466.83039594 371.1050508 -462.75 365.625 C-457.94598278 359.1856759 -452.97320103 352.89730345 -447.9296875 346.64453125 C-445.10674894 343.14330587 -442.33108678 339.60675326 -439.5625 336.0625 C-433.9589552 328.90303726 -428.22816924 321.84935373 -422.4765625 314.80859375 C-421.16952459 313.2076452 -419.86576644 311.60402024 -418.5625 310 C-414.13115296 304.55577364 -409.62736461 299.17890431 -405.08105469 293.83081055 C-402.22107147 290.46111255 -399.40725959 287.05951093 -396.625 283.625 C-391.97797218 277.91768776 -387.15559455 272.37166327 -382.3203125 266.82421875 C-380.19390679 264.38249287 -378.08361323 261.92877895 -375.9921875 259.45703125 C-369.60859775 251.91751712 -363.00335453 244.63687896 -356.23046875 237.4453125 C-353.65382229 234.70748637 -351.12438476 231.9338324 -348.625 229.125 C-336.97470433 216.15223834 -324.81539085 203.71287267 -312.5 191.375 C-311.84415924 190.71657104 -311.18831848 190.05814209 -310.51260376 189.37976074 C-297.88772761 176.71562237 -297.88772761 176.71562237 -291.72705078 171.48193359 C-288.61107631 168.80820373 -285.66695449 165.94870487 -282.6875 163.125 C-277.52550214 158.27098043 -272.27351594 153.62788255 -266.734375 149.203125 C-264.20741689 147.16711875 -261.73513957 145.08293543 -259.27124023 142.97192383 C-252.3696043 137.06310813 -245.2886478 131.4246976 -238 126 C-237.3390332 125.50773926 -236.67806641 125.01547852 -235.99707031 124.50830078 C-219.64566465 112.39013432 -202.66224854 101.12217607 -185 91 C-183.80648926 90.31405762 -183.80648926 90.31405762 -182.58886719 89.61425781 C-158.29705213 75.75540732 -133.85118054 66.14325535 -106.63012695 59.75610352 C-99.2855256 57.64469254 -94.12577915 52.46813285 -88.6328125 47.38671875 C-86.01235887 45.01120366 -83.31750712 42.77984903 -80.5625 40.5625 C-76.86748664 37.57866076 -73.34125439 34.49600827 -69.875 31.25 C-20.57228756 -14.0265597 -20.57228756 -14.0265597 0 0 Z M-204 131 C-205.16796683 131.90273133 -206.33729266 132.80370648 -207.5078125 133.703125 C-214.02644641 138.73072923 -220.28053207 143.89824534 -226.3046875 149.515625 C-228.44701477 151.49029188 -230.61334612 153.41425763 -232.8125 155.32421875 C-237.00446199 158.97927921 -241.07928553 162.74675246 -245.125 166.5625 C-246.22207275 167.59697266 -246.22207275 167.59697266 -247.34130859 168.65234375 C-260.84354634 181.42535963 -260.84354634 181.42535963 -273.36328125 195.14453125 C-275.31900088 197.36163584 -277.3955589 199.42375912 -279.5 201.5 C-283.54812803 205.50730657 -287.30889707 209.66476342 -291 214 C-291.89282159 215.04071438 -292.78608742 216.08104773 -293.6796875 217.12109375 C-295.72961794 219.50781786 -297.77596474 221.89755538 -299.8203125 224.2890625 C-301.88970698 226.7082138 -303.96777307 229.11938733 -306.0546875 231.5234375 C-311.53964115 237.85489493 -316.85770315 244.27452985 -321.99633789 250.890625 C-324.92617095 254.65702541 -327.92842231 258.34705114 -331 262 C-340.43734221 273.25050087 -349.30152681 284.95683355 -358.19628906 296.63720703 C-360.11202942 299.1467543 -362.03596152 301.64987497 -363.9609375 304.15234375 C-371.19860294 313.57826129 -378.276027 323.07665057 -385.07421875 332.82421875 C-388.16483962 337.25358571 -391.32880382 341.62811881 -394.5 346 C-400.74001737 354.61562564 -406.88956563 363.29210541 -413 372 C-413.53705566 372.76505859 -414.07411133 373.53011719 -414.62744141 374.31835938 C-421.4581219 384.0531255 -428.26567921 393.80406785 -435.0625 403.5625 C-435.7318457 404.52325439 -436.40119141 405.48400879 -437.09082031 406.47387695 C-440.87508661 411.91502578 -444.62239684 417.37916745 -448.34082031 422.86547852 C-452.90030738 429.58998394 -457.48018742 436.1537079 -462.70703125 442.3828125 C-464.10407749 443.78508838 -464.10407749 443.78508838 -464 445 C-450.85619477 444.76138716 -437.71248086 444.51828686 -424.56886387 444.26950932 C-418.46529947 444.15412323 -412.36171465 444.04026397 -406.25805664 443.92993164 C-400.36411889 443.82333349 -394.47026989 443.71267553 -388.57645988 443.59924126 C-386.33151865 443.55674058 -384.08654956 443.51568539 -381.84155464 443.4761219 C-378.68928637 443.42031889 -375.53715769 443.35930649 -372.38500977 443.29711914 C-371.46359192 443.28201294 -370.54217407 443.26690674 -369.59283447 443.25134277 C-365.39634731 443.16360195 -361.20437668 443.01154239 -357.01841736 442.69676208 C-356.30790191 442.64660163 -355.59738646 442.59644117 -354.86534023 442.5447607 C-352.38731504 441.82106927 -351.68559141 440.69869987 -350.3203125 438.5546875 C-349.55355197 437.01168982 -348.82403907 435.44983584 -348.125 433.875 C-347.71338623 433.02534668 -347.30177246 432.17569336 -346.87768555 431.30029297 C-345.55238205 428.54779719 -344.27555879 425.7758474 -343 423 C-341.7215711 420.30082191 -340.43296813 417.6066492 -339.14428711 414.91235352 C-338.24447117 413.02909072 -337.34823826 411.14411242 -336.45532227 409.25756836 C-327.6108419 390.64107935 -317.89582528 372.42798994 -307.953125 354.37890625 C-305.89851467 350.64892442 -303.8701404 346.90614349 -301.859375 343.15234375 C-295.28460056 330.88860882 -288.46585037 318.80351822 -281.40625 306.8125 C-278.69671684 302.20690525 -276.0428342 297.5728937 -273.41308594 292.92138672 C-267.44999647 282.37843933 -261.1851612 272.05350581 -254.74902344 261.79345703 C-252.88991325 258.82417468 -251.04183179 255.84822083 -249.1953125 252.87109375 C-242.67828022 242.37762277 -236.09673577 231.95027804 -229.16503906 221.72558594 C-227.53320672 219.30861381 -225.92370962 216.87703691 -224.3125 214.44628906 C-210.20787146 193.19017308 -195.3384936 172.57383516 -179.79931641 152.34277344 C-178.21111113 150.27487414 -176.62620743 148.20451473 -175.04296875 146.1328125 C-170.11149873 139.68771387 -165.10880988 133.30555865 -160 127 C-159.30390625 126.14019531 -158.6078125 125.28039062 -157.890625 124.39453125 C-153.85024973 119.4300276 -149.76128212 114.50961301 -145.625 109.625 C-144.9429248 108.8191748 -144.9429248 108.8191748 -144.24707031 107.99707031 C-141.81724686 105.1307312 -139.37715607 102.27371339 -136.92578125 99.42578125 C-136.17530518 98.54962158 -136.17530518 98.54962158 -135.40966797 97.65576172 C-134.45247752 96.53856331 -133.49203366 95.42414132 -132.52783203 94.31298828 C-130.27375628 91.67666688 -128.36027427 89.20471395 -127 86 C-152.53329496 86 -185.08137948 115.96338213 -204 131 Z M-557.69921875 477.21484375 C-558.4653801 477.34551743 -559.23154144 477.4761911 -560.0209198 477.61082458 C-562.57726742 478.04841823 -565.13241833 478.49257767 -567.6875 478.9375 C-569.5112202 479.25282631 -571.33495092 479.56809184 -573.15869141 479.88330078 C-578.08328392 480.73671028 -583.00646942 481.59799535 -587.92926025 482.46173096 C-590.99729385 482.99952564 -594.06574996 483.53485491 -597.13427734 484.06982422 C-664.80414508 495.8889715 -731.64289122 510.66676857 -797 532 C-797.80667114 532.26214294 -798.61334229 532.52428589 -799.44445801 532.79437256 C-834.23420046 544.11335485 -868.59987385 557.06768955 -902 572 C-903.33116604 572.59240069 -904.66238563 573.18468106 -905.99365234 573.77685547 C-923.88166919 581.7459866 -941.62973446 589.94532001 -959 599 C-959.89090332 599.4640625 -960.78180664 599.928125 -961.69970703 600.40625 C-976.19452355 608.01424555 -990.18003273 616.42577612 -1004.11503601 625.00106812 C-1007.53070037 627.10243087 -1010.9566001 629.18528609 -1014.39453125 631.25 C-1021.47195715 635.50680118 -1028.36964114 639.81471849 -1034.9765625 644.78515625 C-1038.20542013 647.15048219 -1041.50178098 649.39114901 -1044.81933594 651.62939453 C-1053.22613845 657.30472713 -1061.36407345 663.17094243 -1069.23583984 669.56689453 C-1071.12657877 671.10282554 -1073.02582329 672.62783491 -1074.92578125 674.15234375 C-1087.45916785 684.23875736 -1099.6757078 694.63032028 -1111.46289062 705.58056641 C-1113.09622928 707.0888623 -1114.742168 708.58246808 -1116.390625 710.07421875 C-1121.71122677 714.90487453 -1126.85015969 719.69455375 -1131.46875 725.21875 C-1133.02093021 727.02434739 -1134.66097678 728.6608049 -1136.375 730.3125 C-1140.08488557 733.96467624 -1143.30490824 737.94842462 -1146.5625 742.00390625 C-1148.62763138 744.5422969 -1150.74308158 747.02313756 -1152.89086914 749.49145508 C-1187.0588723 788.98689253 -1211.81490223 837.504262 -1221 889 C-1221.24363281 890.2890625 -1221.48726562 891.578125 -1221.73828125 892.90625 C-1226.83136514 924.22698361 -1221.37912723 958.503752 -1203.03125 984.82421875 C-1201.109248 987.31443166 -1199.11022911 989.66785388 -1197 992 C-1196.33613281 992.74507812 -1195.67226562 993.49015625 -1194.98828125 994.2578125 C-1175.04705416 1015.41541759 -1146.11378115 1025.67323764 -1117.51708984 1026.93017578 C-1079.95679681 1027.9721005 -1042.97104784 1015.34919118 -1010.06542969 998.06445312 C-1007.89689064 996.9468609 -1005.70615333 995.88579089 -1003.5078125 994.828125 C-979.14574409 982.87687526 -956.45879999 966.51809534 -935 950 C-934.38785645 949.53126465 -933.77571289 949.0625293 -933.14501953 948.57958984 C-929.05451721 945.43809295 -925.01389036 942.23867548 -921 939 C-919.98292969 938.18015625 -919.98292969 938.18015625 -918.9453125 937.34375 C-910.67805638 930.65831545 -902.56605191 923.87099369 -894.80859375 916.59765625 C-892.60976106 914.56396537 -890.388165 912.58208118 -888.12890625 910.6171875 C-876.4166914 900.40770307 -865.37004177 889.4695708 -854.375 878.5 C-853.86026123 877.98784943 -853.34552246 877.47569885 -852.81518555 876.94802856 C-847.50221772 871.65617594 -842.28797602 866.3260277 -837.40869141 860.62695312 C-835.69762857 858.65077934 -833.88002833 856.81519977 -832 855 C-828.85079119 851.89286078 -825.92023033 848.67509696 -823.0390625 845.3203125 C-820.96428001 842.95935311 -818.83473515 840.66013453 -816.68969727 838.36328125 C-811.62299507 832.93687403 -806.79623859 827.40486642 -802.14453125 821.61328125 C-800.00125044 819.00152377 -797.7761967 816.49634698 -795.5 814 C-790.79546138 808.82500751 -786.39300769 803.43993943 -782 798 C-780.97721642 796.74556031 -779.95373833 795.49168665 -778.9296875 794.23828125 C-772.35700256 786.1872088 -765.86071039 778.08279609 -759.47167969 769.88525391 C-757.8837968 767.85114116 -756.28966237 765.82201586 -754.6953125 763.79296875 C-746.8567898 753.79452696 -739.24716864 743.64742407 -731.75 733.39111328 C-728.84354866 729.41988219 -725.92105052 725.46049774 -723 721.5 C-719.47411922 716.71663726 -715.94961058 711.93228025 -712.4296875 707.14453125 C-706.96608827 699.71622264 -701.48740635 692.3016048 -695.9375 684.9375 C-689.4971766 676.38352807 -683.24776963 667.69506126 -677 659 C-669.80143369 648.99303418 -662.55746954 639.02308463 -655.23291016 629.10791016 C-649.63567826 621.5233116 -644.11591373 613.8841167 -638.60888672 606.23388672 C-635.36853805 601.73476831 -632.11972298 597.24175881 -628.87255859 592.74755859 C-626.17401978 589.012055 -623.47742047 585.2751852 -620.78515625 581.53515625 C-615.17096822 573.74084153 -609.52114617 565.975464 -603.8125 558.25 C-598.99605784 551.73131921 -594.23977065 545.1755172 -589.54296875 538.5703125 C-582.1431731 528.16663941 -574.63873491 517.83825198 -567.0625 507.5625 C-566.20507202 506.39908081 -566.20507202 506.39908081 -565.33032227 505.2121582 C-562.24362566 501.02816147 -559.14639857 496.85228641 -556.0390625 492.68359375 C-555.39445068 491.81597412 -554.74983887 490.94835449 -554.08569336 490.05444336 C-552.84501411 488.38483217 -551.60116553 486.71757018 -550.35375977 485.05297852 C-549.79744873 484.30330811 -549.2411377 483.5536377 -548.66796875 482.78125 C-548.17578857 482.12189453 -547.6836084 481.46253906 -547.17651367 480.78320312 C-545.82234509 478.89786365 -545.82234509 478.89786365 -545 476 C-549.33749455 475.8368653 -553.44346703 476.47077103 -557.69921875 477.21484375 Z " fill="#FEFEFE" transform="translate(1249,18)"/>
<path d="M0 0 C0.66 0 1.32 0 2 0 C2.06873082 30.71790695 2.12167907 61.43579598 2.15319599 92.15376167 C2.15694722 95.7965997 2.16083027 99.43943758 2.16479492 103.08227539 C2.16558185 103.80736901 2.16636878 104.53246262 2.16717956 105.27952877 C2.18016329 116.95467443 2.20377741 128.62977487 2.23145839 140.30489387 C2.25971003 152.32271297 2.27621752 164.34050871 2.28226548 176.35835963 C2.28597963 183.09256219 2.2951461 189.82665675 2.31719017 196.56082726 C2.58465723 281.65775535 -14.19805683 361.58089808 -68 430 C-68.78117187 430.99515625 -69.56234375 431.9903125 -70.3671875 433.015625 C-75.15155548 438.97480219 -80.23419124 444.61658566 -85.43359375 450.2109375 C-87.57498215 452.53810845 -89.64342629 454.90058615 -91.6875 457.3125 C-94.51796141 460.5722257 -97.56944943 463.38623437 -100.86328125 466.171875 C-103.13655621 468.1168342 -105.31075649 470.14860655 -107.5 472.1875 C-158.20526955 517.78353628 -224.01536878 535.80320773 -290.93429565 532.3142395 C-354.72390523 528.82300654 -422.46712112 512.17285333 -472.42333984 470.31640625 C-473.98242611 469.01467303 -475.56067393 467.74016576 -477.14453125 466.46875 C-490.79756369 455.37803365 -503.38774164 442.85223256 -513.78222656 428.64453125 C-514.95477572 427.06107272 -516.17585401 425.51390438 -517.3984375 423.96875 C-534.06928838 402.17255662 -545.58954692 375.08236889 -550 348 C-550.27070312 346.4840625 -550.27070312 346.4840625 -550.546875 344.9375 C-553.18508351 322.01237781 -551.4938153 298.80188482 -537 280 C-528.78654122 270.54259414 -519.41622094 264.98093553 -507 263 C-492.58136568 262.24035564 -481.36819649 263.18371191 -470 273 C-451.13286564 291.4856298 -446.69591537 323.18828572 -441.43078613 347.75427246 C-431.62927478 393.31697144 -421.22955492 440.29488758 -388 475 C-387.30519531 475.75796875 -386.61039063 476.5159375 -385.89453125 477.296875 C-379.93869535 483.58901493 -373.24662065 488.34573597 -366 493 C-365.04222656 493.61875 -364.08445312 494.2375 -363.09765625 494.875 C-341.86893985 507.92090528 -317.51857172 513.42341993 -293 516 C-291.82308594 516.13148438 -290.64617187 516.26296875 -289.43359375 516.3984375 C-248.76434216 520.24201939 -207.58501852 511.40287805 -175.25 485.5625 C-173.48723838 484.05647693 -171.73752515 482.53507015 -170 481 C-169.51047852 480.57605957 -169.02095703 480.15211914 -168.51660156 479.71533203 C-161.22606488 473.38869953 -154.91025782 466.65289156 -149 459 C-147.83404297 457.57494141 -147.83404297 457.57494141 -146.64453125 456.12109375 C-135.37640333 442.09415549 -126.60856768 426.26152643 -119 410 C-118.67580078 409.31824707 -118.35160156 408.63649414 -118.01757812 407.93408203 C-97.06789881 363.65593427 -85.52924041 312.48236594 -82.18475342 263.66346741 C-82.04990745 261.71948254 -81.90083197 259.77646963 -81.7434082 257.83418274 C-80.82070664 244.97064642 -80.99412015 232.15072275 -81.13698769 219.26164246 C-81.17963939 215.12844614 -81.19945602 210.9953207 -81.21342468 206.86193848 C-81.21700288 205.80447111 -81.21700288 205.80447111 -81.22065336 204.72564077 C-81.22993636 201.82850277 -81.23836092 198.93136333 -81.24606192 196.0342207 C-81.26831027 187.90189512 -81.31300732 179.77123459 -81.4284668 171.63964844 C-81.52081459 165.12505647 -81.56160992 158.61228955 -81.54560155 152.09703493 C-81.53897824 148.67257499 -81.55525799 145.25235091 -81.63485146 141.82872009 C-82.01715576 122.65986759 -78.5616522 109.77074846 -67.85663414 93.78038025 C-65.32839048 89.9942392 -62.95361221 86.1188884 -60.56601429 82.24312592 C-46.46059929 59.56616643 -30.91367254 37.66223818 -14 17 C-13.1416769 15.9455161 -12.28359342 14.89083708 -11.42578125 13.8359375 C-9.92372934 11.99375153 -8.41766722 10.15482254 -6.90625 8.3203125 C-5.72844995 6.88667883 -4.55978568 5.44541628 -3.40625 3.9921875 C-2.31347798 2.62622248 -1.16435256 1.30548621 0 0 Z " fill="#FEFEFE" transform="translate(1065,913)"/>
<path d="M0 0 C40.59 1.485 40.59 1.485 82 3 C82.33093108 42.50875823 82.60779294 82.01620527 82.76597994 121.52595372 C82.78473965 126.19455101 82.80415457 130.86314537 82.82397461 135.53173828 C82.82987659 136.92583748 82.82987659 136.92583748 82.83589781 138.34810029 C82.9010982 153.3802415 83.01932631 168.41151879 83.15729194 183.44314815 C83.29776249 198.87687119 83.38092264 214.31014304 83.41132742 229.74447906 C83.43187023 239.26236643 83.49664634 248.7778118 83.618747 258.29494701 C83.69828409 264.82888531 83.7219481 271.36156879 83.70252066 277.89595558 C83.69294717 281.66230769 83.70718591 285.42440737 83.78808212 289.18999481 C84.27258332 312.88875102 84.27258332 312.88875102 78.69322395 319.84321213 C75.65242407 322.9636854 72.37220355 325.5207671 68.71697628 327.8812387 C66.5725829 329.27849989 64.70298111 330.9041285 62.81640625 332.62890625 C62.21973145 333.14340332 61.62305664 333.65790039 61.00830078 334.18798828 C56.69613103 338.07869141 52.62477211 342.22839774 48.52709961 346.3425293 C46.94040054 347.93458966 45.34842258 349.5212299 43.75585938 351.10742188 C38.29294597 356.56649938 33.00403665 362.11323524 28 368 C27.04000362 369.08402195 26.0778314 370.16612169 25.11328125 371.24609375 C16.65979174 380.83048487 8.75338052 390.98715856 2.22265625 401.99609375 C1.81917969 402.65738281 1.41570313 403.31867188 1 404 C0.67 404 0.34 404 0 404 C0 270.68 0 137.36 0 0 Z " fill="#FEFEFE" transform="translate(985,505)"/>
<path d="M0 0 C0.51046875 1.56234375 0.51046875 1.56234375 1.03125 3.15625 C6.22654707 18.68005329 12.57464567 32.27915481 23 45 C23.52722656 45.70253906 24.05445313 46.40507813 24.59765625 47.12890625 C32.03804675 56.54832645 43.3325623 63.54271075 53.92578125 68.87890625 C56 70 56 70 58 72 C57.875 75 57.875 75 57 78 C52.23813751 81.09521062 47.0880885 80.47909636 41.68359375 79.640625 C28.27991635 76.37251255 17.59473791 66.37896419 8 57 C7.35675781 56.40703125 6.71351563 55.8140625 6.05078125 55.203125 C-6.98396552 42.92797886 -16.69587868 26.6120229 -23 10 C-19.54466686 8.32705993 -16.08526007 6.66272237 -12.625 5 C-11.14773438 4.28457031 -11.14773438 4.28457031 -9.640625 3.5546875 C-8.22910156 2.87792969 -8.22910156 2.87792969 -6.7890625 2.1875 C-5.91975098 1.76855469 -5.05043945 1.34960938 -4.15478516 0.91796875 C-2 0 -2 0 0 0 Z " fill="#FEFEFE" transform="translate(914,1428)"/>
</svg>
