<?xml version="1.0" encoding="UTF-8"?>
<svg version="1.1" xmlns="http://www.w3.org/2000/svg" width="1875" height="1875">
<path d="M0 0 C6.67511537 5.48667103 12.71649902 11.57086694 18.8125 17.6796875 C19.95143319 18.81794558 21.09051466 19.9560553 22.22973633 21.09402466 C24.60823559 23.47105611 26.98493381 25.84986971 29.36035156 28.22998047 C32.38609863 31.2614177 35.41630522 34.28835103 38.44789124 37.31394768 C40.79875666 39.66117708 43.14720742 42.01081085 45.4949646 44.36114883 C46.61045204 45.47729749 47.72666648 46.59272014 48.84365845 47.70736313 C50.41254578 49.2736743 51.97813088 50.84321865 53.54296875 52.41357422 C54.43008545 53.30148651 55.31720215 54.1893988 56.23120117 55.10421753 C58.3699846 57.29447288 60.38362823 59.57119831 62.38525391 61.88723755 C65.86204168 65.89234806 69.52866995 69.65685188 73.29296875 73.390625 C73.98500397 74.08119995 74.67703918 74.7717749 75.39004517 75.48327637 C76.87899654 76.96844978 78.36910102 78.45246792 79.86026001 79.9354248 C82.22590636 82.28819735 84.58831828 84.64417588 86.94995117 87.00097656 C91.96382394 92.00347404 96.981616 97.00202863 102 102 C107.81962008 107.79594837 113.63758312 113.59354008 119.45132446 119.39538574 C121.76847237 121.70609471 124.08863259 124.01374891 126.40893555 126.32128906 C127.84178344 127.75050135 129.2744894 129.17985596 130.70703125 130.609375 C131.34412018 131.24129761 131.98120911 131.87322021 132.63760376 132.52429199 C135.6774387 135.56377292 138.60168895 138.65123165 141.40820312 141.90820312 C145.3219331 146.43490228 149.51805809 150.64358277 153.76171875 154.859375 C154.6098111 155.70600708 155.45790344 156.55263916 156.33169556 157.42492676 C158.63572578 159.72418921 160.94193269 162.02124166 163.24899673 164.31745911 C165.67682877 166.73522816 168.10135471 169.15630749 170.52612305 171.57714844 C176.68110657 177.72108483 182.84032307 183.86076959 189 190 C195.652528 196.63044551 202.30429574 203.26164349 208.95117283 209.89775467 C211.35810175 212.3005431 213.76608563 214.70225382 216.17660522 217.10144043 C218.86609403 219.7789096 221.55248465 222.45945287 224.23828125 225.140625 C225.02498199 225.92215942 225.81168274 226.70369385 226.6222229 227.50891113 C230.66565929 231.5519623 234.51178877 235.68740816 238.24388123 240.01803589 C241.41477418 243.59672095 244.81917481 246.94081549 248.2109375 250.30859375 C249.00050842 251.09670441 249.79007935 251.88481506 250.60357666 252.69680786 C252.30533965 254.39478768 254.00825613 256.09161209 255.71221924 257.78738403 C258.41390271 260.47621768 261.11237453 263.16823814 263.81005859 265.86108398 C269.53723426 271.57687268 275.26829817 277.28875097 281 283 C287.64570152 289.62198724 294.28969713 296.24566672 300.92950439 302.87356567 C303.57904359 305.51665546 306.23159295 308.15669826 308.88427734 310.79663086 C310.51935473 312.42807333 312.15429055 314.05965771 313.7890625 315.69140625 C314.51965881 316.41683624 315.25025513 317.14226624 316.00299072 317.88967896 C319.92521692 321.81150411 323.64109071 325.83901822 327.26371765 330.03787231 C330.22607877 333.38555984 333.39622181 336.51851686 336.56835938 339.66601562 C337.2896553 340.38585129 338.01095123 341.10568695 338.75410461 341.84733582 C340.30689954 343.39635107 341.8608477 344.944211 343.41584778 346.49101257 C345.88230491 348.94460379 348.3455351 351.40139468 350.8079834 353.85900879 C356.03584707 359.07549333 361.26762878 364.28803725 366.5 369.5 C372.56743504 375.54376947 378.63321739 381.5891785 384.69477844 387.63883972 C387.11164385 390.04926275 389.53152087 392.45663357 391.95153809 394.8638916 C393.44505482 396.35377295 394.93842973 397.84379649 396.43164062 399.33398438 C397.09678177 399.9939592 397.76192291 400.65393402 398.44721985 401.33390808 C402.21299862 405.09926585 405.76028274 408.98635006 409.24112701 413.01528168 C412.21307108 416.36883357 415.38856397 419.51091851 418.56835938 422.66601562 C419.2896553 423.38585129 420.01095123 424.10568695 420.75410461 424.84733582 C422.30689954 426.39635107 423.8608477 427.944211 425.41584778 429.49101257 C427.88230491 431.94460379 430.3455351 434.40139468 432.8079834 436.85900879 C438.03584707 442.07549333 443.26762878 447.28803725 448.5 452.5 C454.56743504 458.54376947 460.63321739 464.5891785 466.69477844 470.63883972 C469.11164385 473.04926275 471.53152087 475.45663357 473.95153809 477.8638916 C475.44505482 479.35377295 476.93842973 480.84379649 478.43164062 482.33398438 C479.09678177 482.9939592 479.76192291 483.65393402 480.44721985 484.33390808 C484.2275189 488.1137845 487.7917249 492.01534156 491.28592682 496.06008148 C494.01046025 499.14359794 496.91262795 502.03585047 499.83398438 504.93164062 C500.47725174 505.57344772 501.1205191 506.21525482 501.78327942 506.87651062 C503.16582472 508.25528115 504.54952286 509.63289651 505.9342804 511.00944519 C508.13190961 513.19418582 510.32629034 515.38214426 512.51989746 517.57092285 C517.17711839 522.21677565 521.83826095 526.85868136 526.5 531.5 C531.90659578 536.88291258 537.31152634 542.26747557 542.7122345 547.65629578 C544.86318631 549.80081509 547.01715172 551.94227484 549.17126465 554.08361816 C550.50299784 555.41171531 551.83458885 556.73995504 553.16601562 558.06835938 C553.75635086 558.65352829 554.3466861 559.2386972 554.95491028 559.84159851 C558.5736606 563.45989592 561.96718144 567.21847756 565.31485939 571.08803558 C567.74977952 573.85070157 570.32279208 576.45516036 572.93530273 579.04882812 C573.75613594 579.86988037 573.75613594 579.86988037 574.59355164 580.70751953 C576.37120121 582.48448225 578.15234678 584.25789403 579.93359375 586.03125 C581.17934244 587.27513013 582.42486795 588.51923381 583.67018127 589.7635498 C586.92461236 593.01419015 590.18203681 596.26181428 593.44012451 599.50878906 C596.77376868 602.83214452 600.10453077 606.1583858 603.43554688 609.484375 C609.95423646 615.99238809 616.47609653 622.49721383 623 629 C628.37167361 624.51451173 633.37236256 619.77416042 638.3125 614.8203125 C639.4713269 613.66292068 639.4713269 613.66292068 640.65356445 612.48214722 C642.27840984 610.85797892 643.90200676 609.23256077 645.52441406 607.60595703 C647.98912254 605.13590106 650.45911155 602.67121693 652.9296875 600.20703125 C654.51594564 598.62011211 656.10189343 597.03288268 657.6875 595.4453125 C658.41686768 594.71796906 659.14623535 593.99062561 659.89770508 593.24124146 C660.59532959 592.54046478 661.2929541 591.83968811 662.01171875 591.11767578 C662.61459717 590.51400177 663.21747559 589.91032776 663.83862305 589.2883606 C665.68714039 587.33124051 667.44542201 585.33532372 669.20166016 583.2963562 C673.1945177 578.71071708 677.44958767 574.42443801 681.76171875 570.140625 C682.6098111 569.29399292 683.45790344 568.44736084 684.33169556 567.57507324 C686.63572578 565.27581079 688.94193269 562.97875834 691.24899673 560.68254089 C693.67682877 558.26477184 696.10135471 555.84369251 698.52612305 553.42285156 C705.20321511 546.75774372 711.8853366 540.09768572 718.56752014 533.43768311 C724.69748906 527.32795733 730.82635868 521.21713915 736.95117283 515.10224533 C739.35810175 512.6994569 741.76608563 510.29774618 744.17660522 507.89855957 C746.86609403 505.2210904 749.55248465 502.54054713 752.23828125 499.859375 C753.02498199 499.07784058 753.81168274 498.29630615 754.6222229 497.49108887 C758.02312521 494.09051057 761.33818039 490.66794546 764.47705078 487.02294922 C768.47517755 482.38413655 772.78674348 478.08837917 777.12890625 473.7734375 C778.01601288 472.88779114 778.90311951 472.00214478 779.81710815 471.08966064 C781.73169204 469.178864 783.64714525 467.26899097 785.56417847 465.36065674 C788.60230507 462.33617324 791.63650583 459.30777113 794.67016602 456.27880859 C801.65688097 449.30408181 808.64862373 442.33440231 815.64042664 435.36477661 C822.05404725 428.97139465 828.46657159 422.57692299 834.87504101 416.17837715 C837.88399158 413.17437505 840.89535466 410.17281991 843.90866089 407.17318726 C846.23147632 404.85965429 848.55100639 402.54283077 850.87109375 400.2265625 C851.69519745 399.40762512 852.51930115 398.58868774 853.36837769 397.74493408 C856.849947 394.26368203 860.25440431 390.76783694 863.46557617 387.03442383 C867.63416479 382.19421535 872.15151546 377.7242505 876.6796875 373.22265625 C877.63509156 372.26917602 878.59026476 371.31546442 879.54522705 370.36154175 C881.58716584 368.32274161 883.63064189 366.28549993 885.675354 364.2494812 C888.91510454 361.02336223 892.1509398 357.79333478 895.38623047 354.56274414 C902.8373795 347.1235886 910.29355414 339.6894769 917.74978638 332.25541687 C924.58888487 325.43655098 931.42689117 318.61659904 938.26084328 311.79257488 C941.47050439 308.58786567 944.68258006 305.38560325 947.89659119 302.18525696 C949.90230811 300.18705171 951.90590398 298.18672969 953.90895844 296.18585587 C955.26679591 294.83075258 956.62715211 293.47817454 957.98760986 292.1257019 C962.23390492 287.87977008 966.29964986 283.56283466 970.21455383 279.0112915 C973.71282175 275.07051935 977.48435308 271.39483022 981.22070312 267.68164062 C982.59738082 266.30720443 983.97405838 264.93276811 985.3507309 263.55832672 C986.81599357 262.09641285 988.28249767 260.63575506 989.74937439 259.17546082 C992.82110493 256.11737135 995.88891148 253.05536505 998.95617676 249.99279785 C1006.02029742 242.94066631 1013.08944549 235.89358143 1020.15865326 228.84654999 C1026.64318682 222.38225401 1033.12662484 215.91686898 1039.60600805 209.44741011 C1042.64841039 206.40995684 1045.6932256 203.37495051 1048.7399826 200.34186554 C1050.18145315 198.90609176 1051.62174755 197.46915023 1053.0615387 196.0316925 C1054.80740844 194.28866538 1056.55505237 192.54741254 1058.30491638 190.80839539 C1061.81895798 187.29467056 1065.25691709 183.76657388 1068.5 180 C1072.51687287 175.33473278 1076.85585437 171.01943306 1081.22070312 166.68164062 C1082.59738082 165.30720443 1083.97405838 163.93276811 1085.3507309 162.55832672 C1086.81599357 161.09641285 1088.28249767 159.63575506 1089.74937439 158.17546082 C1092.82110493 155.11737135 1095.88891148 152.05536505 1098.95617676 148.99279785 C1106.02029742 141.94066631 1113.08944549 134.89358143 1120.15865326 127.84654999 C1126.64318682 121.38225401 1133.12662484 114.91686898 1139.60600805 108.44741011 C1142.64841039 105.40995684 1145.6932256 102.37495051 1148.7399826 99.34186554 C1150.18145315 97.90609176 1151.62174755 96.46915023 1153.0615387 95.0316925 C1154.80740844 93.28866538 1156.55505237 91.54741254 1158.30491638 89.80839539 C1162.47004401 85.64364323 1166.45021087 81.39770505 1170.29236794 76.93445587 C1173.27871057 73.55143902 1176.48119373 70.38827462 1179.67944336 67.20703125 C1180.41198334 66.47434525 1181.14452332 65.74165924 1181.89926147 64.98677063 C1184.29375663 62.59296582 1186.69176198 60.20271131 1189.08984375 57.8125 C1190.76157655 56.14263451 1192.43308705 54.47254643 1194.10438538 52.80224609 C1198.48331136 48.42712068 1202.86523316 44.05500793 1207.24780273 39.68353271 C1211.72757509 35.2140276 1216.20448407 30.74165637 1220.68164062 26.26953125 C1229.45163968 17.51022607 1238.22480887 8.75410347 1247 0 C1250.77854787 3.19490241 1254.51257709 6.38624953 1258.00756836 9.89404297 C1258.70776596 10.5943161 1259.40796356 11.29458923 1260.12937927 12.01608276 C1260.85883255 12.75069733 1261.58828583 13.48531189 1262.33984375 14.2421875 C1263.10680069 15.01055939 1263.87375763 15.77893127 1264.66395569 16.57058716 C1267.0908474 19.00303509 1269.51422127 21.43895322 1271.9375 23.875 C1273.59156486 25.53408552 1275.24585945 27.19294202 1276.90039062 28.8515625 C1280.9362546 32.89839736 1284.96903679 36.94828428 1289 41 C1277.27652413 54.85038087 1264.47465207 67.65977238 1251.62169075 80.45347404 C1248.7807657 83.28142891 1245.9430856 86.11260402 1243.10630798 88.94471741 C1237.09472021 94.94533742 1231.07883537 100.94164061 1225.0625 106.9375 C1218.53786775 113.4399913 1212.01405511 119.94329454 1205.49510187 126.45147997 C1202.23240086 129.70845514 1198.96581383 132.96150133 1195.69850159 136.21385193 C1193.98513195 137.92358786 1192.27190321 139.63346502 1190.55883789 141.34350586 C1189.40930885 142.48528542 1189.40930885 142.48528542 1188.23655701 143.65013123 C1184.88494996 147.00141077 1181.62356922 150.37825992 1178.52989197 153.97010803 C1174.55676945 158.57790257 1170.27700588 162.84800602 1165.96289062 167.13476562 C1165.08553757 168.01065842 1164.20818451 168.88655121 1163.304245 169.78898621 C1161.41094208 171.67850225 1159.5167703 173.56709448 1157.62101746 175.45414734 C1154.61649477 178.44502485 1151.61589982 181.4398228 1148.61584473 184.43518066 C1141.70653548 191.33250269 1134.79219804 198.22477682 1127.87779999 205.11699677 C1121.53509232 211.4394647 1115.19348165 217.76302299 1108.85592604 224.0906558 C1105.88042723 227.06120675 1102.9025163 230.0293107 1099.92266083 232.99549103 C1097.62547189 235.28339617 1095.33156952 237.57459313 1093.03710938 239.86523438 C1092.22235641 240.67482101 1091.40760345 241.48440765 1090.56816101 242.31852722 C1087.11148626 245.77488352 1083.73369169 249.24705371 1080.54589844 252.95410156 C1076.34515822 257.83059038 1071.79088984 262.33326346 1067.22851562 266.86914062 C1066.26325951 267.83247298 1065.2982342 268.79603665 1064.3334198 269.7598114 C1062.27019997 271.81989225 1060.20544267 273.87841465 1058.13945007 275.93571472 C1054.86609548 279.19543953 1051.59665453 282.45907126 1048.32775879 285.7232666 C1040.7992041 293.23982697 1033.26562415 300.75134403 1025.731987 308.26280975 C1018.82197549 315.15258959 1011.91305555 322.04345492 1005.00818968 328.93839216 C1001.76507683 332.17655259 998.51954909 335.41226624 995.2720871 338.64606476 C993.24561168 340.66502941 991.22125647 342.68611003 989.19744301 344.70774269 C987.82529192 346.07715907 986.45062219 347.44405034 985.07585144 348.81083679 C980.8054894 353.08083723 976.71324895 357.41972659 972.77661896 361.99753571 C969.31084978 365.90387646 965.5740107 369.5468592 961.87109375 373.2265625 C960.98398712 374.11220886 960.09688049 374.99785522 959.18289185 375.91033936 C957.26830796 377.821136 955.35285475 379.73100903 953.43582153 381.63934326 C950.39769493 384.66382676 947.36349417 387.69222887 944.32983398 390.72119141 C937.34311903 397.69591819 930.35137627 404.66559769 923.35957336 411.63522339 C916.94595275 418.02860535 910.53342841 424.42307701 904.12495899 430.82162285 C901.11600842 433.82562495 898.10464534 436.82718009 895.09133911 439.82681274 C892.76852368 442.14034571 890.44899361 444.45716923 888.12890625 446.7734375 C887.30480255 447.59237488 886.48069885 448.41131226 885.63162231 449.25506592 C881.51532515 453.37098798 877.59127389 457.57067633 873.79360962 461.98054504 C870.34898893 465.85890087 866.64118345 469.47979673 862.96289062 473.13476562 C862.08553757 474.01065842 861.20818451 474.88655121 860.304245 475.78898621 C858.41094208 477.67850225 856.5167703 479.56709448 854.62101746 481.45414734 C851.61649477 484.44502485 848.61589982 487.4398228 845.61584473 490.43518066 C838.70653548 497.33250269 831.79219804 504.22477682 824.87779999 511.11699677 C818.53509232 517.4394647 812.19348165 523.76302299 805.85592604 530.0906558 C802.88042723 533.06120675 799.9025163 536.0293107 796.92266083 538.99549103 C794.62547189 541.28339617 792.33156952 543.57459313 790.03710938 545.86523438 C789.22235641 546.67482101 788.40760345 547.48440765 787.56816101 548.31852722 C783.36358674 552.52271413 779.32539183 556.80235568 775.46988678 561.33005524 C772.79361453 564.37057978 769.69601776 566.90472165 766.625 569.53125 C764.5597944 571.4735267 762.7900081 573.37025291 760.96386719 575.52026367 C756.52211236 580.62614752 751.75011122 585.37455295 746.953125 590.14453125 C745.9583127 591.13741998 744.96373108 592.13053988 743.96936035 593.12387085 C741.84229742 595.24779384 739.71369641 597.37015843 737.5838623 599.49130249 C734.20969544 602.85184471 730.8394375 606.21628935 727.46972656 609.58129883 C719.70895496 617.33007373 711.94315908 625.07380687 704.17730713 632.81748962 C697.05455651 639.92001126 689.93289566 647.02361676 682.81528854 654.1312933 C679.47182049 657.46980741 676.12593663 660.80587481 672.77812195 664.14002991 C670.68937098 666.22127271 668.60273781 668.3046292 666.51664734 670.38853836 C665.10155545 671.80089403 663.68394515 673.21072505 662.26623535 674.62045288 C657.83462418 679.05169983 653.53766232 683.53299595 649.47079372 688.30280304 C647.12875383 691.00535944 644.60731267 693.51717096 642.06640625 696.03125 C641.5436058 696.5526355 641.02080536 697.074021 640.48216248 697.61120605 C638.84465002 699.24321078 637.20366151 700.87166574 635.5625 702.5 C634.4379167 703.61955632 633.31356595 704.73934629 632.18945312 705.859375 C629.46230656 708.57561534 626.73204093 711.28868292 624 714 C617.07915635 708.32992619 610.84367373 701.98900033 604.53125 695.6640625 C603.32505614 694.45854362 602.11871397 693.2531731 600.91223145 692.04794312 C598.39249675 689.52967679 595.87456406 687.00962628 593.35791016 684.48828125 C590.15056125 681.27524177 586.93875121 678.06670529 583.72556305 674.85950661 C581.23572923 672.37330694 578.74830749 669.88470492 576.26158142 667.39539719 C575.07910814 666.2122622 573.89590651 665.02985465 572.71192932 663.84822464 C571.04964516 662.18851352 569.39065617 660.52557259 567.73242188 658.86181641 C567.2542955 658.38571426 566.77616913 657.90961212 566.28355408 657.41908264 C563.62665152 654.74597364 561.10681278 651.99574003 558.64463806 649.1416626 C554.9295949 644.8600798 550.97927707 640.85947673 546.95336914 636.87158203 C545.79603775 635.71885048 545.79603775 635.71885048 544.61532593 634.54283142 C542.95444725 632.88906018 541.29244221 631.2364195 539.6294117 629.58481216 C537.00070734 626.97359273 534.37564455 624.35876258 531.75157166 621.7428894 C524.29558563 614.3112887 516.83388263 606.88544393 509.36791992 599.46386719 C504.79101545 594.91365662 500.2189215 590.35865893 495.64980888 585.80062485 C493.90727591 584.0643167 492.16284579 582.32991041 490.41652107 580.59741592 C487.98678958 578.1867775 485.56316667 575.77015559 483.14086914 573.35205078 C482.41315811 572.63310135 481.68544708 571.91415192 480.9356842 571.17341614 C480.28108215 570.51750992 479.6264801 569.8616037 478.95204163 569.18582153 C478.37856019 568.6154825 477.80507875 568.04514347 477.21421909 567.45752144 C476 566 476 566 476 564 C475.47019531 563.79632812 474.94039062 563.59265625 474.39453125 563.3828125 C470.95920354 561.39895278 468.44908248 558.69752332 465.6875 555.875 C465.14416016 555.33101562 464.60082031 554.78703125 464.04101562 554.2265625 C461.17147773 551.32653365 458.42278699 548.35988043 455.76708984 545.26269531 C452.12135263 541.08209967 448.27594166 537.14813657 444.33984375 533.2421875 C443.60879425 532.51259827 442.87774475 531.78300903 442.12454224 531.03131104 C440.55046614 529.46101515 438.97523677 527.8918746 437.3989563 526.3237915 C434.8988955 523.83659413 432.40205928 521.34619908 429.90600586 518.85498047 C424.60681191 513.56716686 419.30370033 508.28329317 414 503 C407.84995992 496.87362356 401.70157116 490.74560874 395.55740356 484.61334229 C393.10729902 482.1696812 390.65418307 479.72907152 388.20092773 477.28857422 C386.68718805 475.77846985 385.17359015 474.26822333 383.66015625 472.7578125 C382.98566437 472.08848694 382.31117249 471.41916138 381.61624146 470.72955322 C377.82809764 466.94182733 374.25677585 463.0346986 370.75564575 458.98149109 C367.78506739 455.6287791 364.61034244 452.4879964 361.43164062 449.33398438 C360.7103447 448.61414871 359.98904877 447.89431305 359.24589539 447.15266418 C357.69310046 445.60364893 356.1391523 444.055789 354.58415222 442.50898743 C352.11769509 440.05539621 349.6544649 437.59860532 347.1920166 435.14099121 C341.96415293 429.92450667 336.73237122 424.71196275 331.5 419.5 C325.43256496 413.45623053 319.36678261 407.4108215 313.30522156 401.36116028 C310.88835615 398.95073725 308.46847913 396.54336643 306.04846191 394.1361084 C304.55494518 392.64622705 303.06157027 391.15620351 301.56835938 389.66601562 C300.90321823 389.0060408 300.23807709 388.34606598 299.55278015 387.66609192 C296.43056449 384.54422531 293.41941312 381.37764183 290.53442383 378.03442383 C286.83712886 373.75523496 282.8926436 369.76625072 278.88085938 365.78320312 C277.71113335 364.6156675 277.71113335 364.6156675 276.51777649 363.42454529 C274.83729463 361.74784614 273.15565932 360.07230239 271.47297668 358.39781189 C268.80489707 355.74258422 266.14003111 353.08416803 263.47595215 350.42492676 C257.82010699 344.78046754 252.16037222 339.13991828 246.5 333.5 C239.93690439 326.96062035 233.37551362 320.41954516 226.8183136 313.87425232 C224.20201349 311.26440069 221.58270301 308.65759673 218.96325684 306.05090332 C217.3484024 304.43968386 215.73368957 302.82832246 214.11914062 301.21679688 C213.39789505 300.50071762 212.67664948 299.78463837 211.93354797 299.04685974 C208.01006682 295.12378471 204.29079873 291.09286144 200.6667099 286.89255524 C198.1045485 283.98321152 195.37835251 281.25452778 192.625 278.52734375 C192.03050049 277.9343045 191.43600098 277.34126526 190.82348633 276.73025513 C189.54734734 275.45788719 188.27005583 274.18667429 186.99169922 272.91653442 C184.96208585 270.89982694 182.93573742 268.87988779 180.91015625 266.85913086 C176.60958766 262.56992205 172.30509474 258.28466525 168 254 C163.00642757 249.03012418 158.01452991 244.0585897 153.02685547 239.08279419 C151.04210014 237.10446386 149.05432977 235.12919871 147.06640625 233.15405273 C145.83578774 231.92707076 144.60531166 230.69994591 143.375 229.47265625 C142.83141846 228.93424103 142.28783691 228.39582581 141.7277832 227.84109497 C138.89252937 225.00622463 136.19048872 222.10311574 133.56884766 219.06884766 C130.05363657 215.01027825 126.33380278 211.20612845 122.5234375 207.42578125 C121.81189514 206.71569916 121.10035278 206.00561707 120.36724854 205.27401733 C118.83573478 203.7462827 117.30306785 202.21970338 115.76934814 200.69418335 C113.33649465 198.27419832 110.90687051 195.85101157 108.47802734 193.42700195 C103.32149396 188.28184645 98.16104213 183.14063231 93 178 C87.01516997 172.03883753 81.03199405 166.07603428 75.05303955 160.10897827 C72.6694133 157.73179328 70.2827752 155.35766133 67.89599609 152.98364258 C66.42270231 151.51398425 64.94955038 150.04418368 63.4765625 148.57421875 C62.82077209 147.92359467 62.16498169 147.27297058 61.48931885 146.60263062 C57.74409551 142.85783165 54.21871812 138.98897602 50.75650024 134.98234558 C47.81415187 131.66167921 44.67201525 128.54955449 41.5234375 125.42578125 C40.81189514 124.71569916 40.10035278 124.00561707 39.36724854 123.27401733 C37.83573478 121.7462827 36.30306785 120.21970338 34.76934814 118.69418335 C32.33649465 116.27419832 29.90687051 113.85101157 27.47802734 111.42700195 C22.32149396 106.28184645 17.16104213 101.14063231 12 96 C6.01516997 90.03883753 0.03199405 84.07603428 -5.94696045 78.10897827 C-8.3305867 75.73179328 -10.7172248 73.35766133 -13.10400391 70.98364258 C-14.57729769 69.51398425 -16.05044962 68.04418368 -17.5234375 66.57421875 C-18.50712311 65.59828262 -18.50712311 65.59828262 -19.51068115 64.60263062 C-23.32975302 60.78399148 -26.954131 56.85004656 -30.47257996 52.75227356 C-32.52644711 50.39605392 -34.71083671 48.19240693 -36.9375 46 C-37.70964844 45.236875 -38.48179687 44.47375 -39.27734375 43.6875 C-39.84582031 43.130625 -40.41429687 42.57375 -41 42 C-39.36312397 37.82741081 -36.30669032 35.03574927 -33.1796875 31.94921875 C-32.60219757 31.37218704 -32.02470764 30.79515533 -31.42971802 30.20063782 C-30.20648633 28.98042338 -28.98082895 27.76263649 -27.75292969 26.54711914 C-25.89728973 24.7095724 -24.04961463 22.86431462 -22.203125 21.01757812 C-16.77752721 15.60871469 -11.3584011 10.24093314 -5.50634766 5.28808594 C-3.56448666 3.62759021 -1.76871252 1.84240888 0 0 Z " fill="#74897A" transform="translate(312,453)"/>
</svg>
